<?xml version="1.0" encoding="UTF-8"?>
<!-- Generator: visioncortex VTracer 0.6.3 -->
<svg version="1.1" xmlns="http://www.w3.org/2000/svg" width="1280" height="1280">
<path d="M0 0 C2.31 -0.01 4.62 -0.01 6.93 -0.02 C11.76 -0.03 16.58 -0.04 21.4 -0.03 C26.27 -0.03 31.14 -0.05 36.01 -0.08 C63.87 -0.23 91.17 0.1 118.75 4.34 C120.12 4.54 121.49 4.75 122.87 4.95 C139.8 7.51 156.5 10.84 173.18 14.75 C174.9 15.14 176.63 15.51 178.37 15.86 C185.75 17.34 193.3 19.27 200.31 22.02 C203.53 23.25 206.37 23.82 209.75 24.34 C211.76 24.98 213.76 25.65 215.75 26.34 C217.35 26.82 218.96 27.3 220.56 27.77 C227.06 29.71 233.47 31.86 239.85 34.18 C242.72 35.23 245.58 36.28 248.45 37.31 C296.01 54.46 340.96 77.72 383 105.71 C383.56 106.08 384.12 106.46 384.7 106.84 C392.18 111.83 399.52 116.99 406.75 122.34 C407.81 123.12 408.87 123.9 409.96 124.7 C426.22 136.86 441.72 149.68 456.75 163.34 C458.31 164.73 459.87 166.13 461.44 167.52 C485.83 189.5 485.83 189.5 495.07 200.14 C498.64 204.25 502.37 208.2 506.12 212.15 C511.96 218.33 517.46 224.67 522.75 231.34 C523.75 232.56 524.76 233.78 525.76 235 C583.63 305.35 626.19 388.38 667.51 582.06 C667.76 584.42 668.03 586.77 668.3 589.12 C669.97 604.51 670.09 619.88 670.07 635.35 C670.06 638.28 670.07 641.22 670.09 644.15 C670.21 663.59 669.34 682.62 667.14 701.93 C666.63 706.42 666.16 710.92 665.7 715.41 C656.35 802.45 627.34 889.52 577.75 972.34 C577.31 973.06 576.87 973.79 576.42 974.53 C567.27 989.61 557.28 1004.19 546.75 1018.34 C546.08 1019.24 546.08 1019.24 545.4 1020.17 C539.72 1027.84 533.99 1035.43 527.89 1042.77 C526.44 1044.51 525 1046.26 523.58 1048.03 C518.74 1054.05 513.68 1059.79 508.43 1065.45 C506.07 1067.99 503.75 1070.56 501.44 1073.15 C479.06 1098.05 479.06 1098.05 467.07 1108.3 C464.58 1110.48 462.17 1112.73 459.76 1115 C454.17 1120.25 448.5 1125.31 442.51 1130.11 C440.02 1132.12 437.59 1134.18 435.17 1136.26 C427.32 1143.02 419.1 1149.21 410.75 1155.34 C409.69 1156.12 409.69 1156.12 408.6 1156.92 C384.82 1174.5 359.61 1190 333.75 1204.34 C332.47 1205.05 332.47 1205.05 331.16 1205.78 C257.89 1246.09 174.84 1269.39 73.17 1279.09 C69.84 1279.27 69.84 1279.27 66.96 1279.84 C63.56 1280.36 60.36 1280.46 56.92 1280.47 C56.27 1280.47 55.61 1280.47 54.94 1280.47 C52.79 1280.48 50.65 1280.47 48.5 1280.47 C47 1280.47 45.5 1280.47 44 1280.47 C40.85 1280.47 37.71 1280.47 34.57 1280.47 C30.56 1280.46 26.54 1280.46 22.53 1280.47 C19.43 1280.47 16.33 1280.47 13.23 1280.47 C11.75 1280.47 10.27 1280.47 8.79 1280.47 C6.72 1280.47 4.65 1280.47 2.58 1280.47 C1.4 1280.46 0.22 1280.46 -0.99 1280.46 C-4.16 1280.34 -7.13 1279.92 -10.25 1279.34 C-11.9 1279.18 -13.56 1279.05 -15.21 1278.94 C-32.32 1277.75 -49.27 1275.71 -66.25 1273.34 C-67.3 1273.19 -68.34 1273.05 -69.42 1272.91 C-121.83 1265.74 -173.73 1250.24 -222.25 1229.34 C-224.21 1228.5 -226.17 1227.67 -228.12 1226.84 C-239.37 1222.05 -250.43 1217.03 -261.25 1211.34 C-262.19 1210.85 -263.12 1210.36 -264.09 1209.85 C-305.59 1188.09 -345.03 1162.21 -380.65 1131.7 C-382.23 1130.35 -383.83 1129.02 -385.43 1127.69 C-392.77 1121.58 -399.8 1115.17 -406.75 1108.62 C-409.6 1105.93 -412.5 1103.31 -415.44 1100.71 C-419.21 1097.33 -422.85 1093.84 -426.44 1090.27 C-426.91 1089.8 -427.39 1089.33 -427.88 1088.85 C-431.21 1085.5 -434.31 1081.99 -437.4 1078.43 C-440.55 1074.87 -443.85 1071.46 -447.12 1068.02 C-453.14 1061.67 -458.82 1055.19 -464.25 1048.34 C-465.25 1047.11 -466.25 1045.89 -467.26 1044.67 C-491.03 1015.77 -511.73 984.83 -530.25 952.34 C-530.75 951.48 -531.25 950.62 -531.77 949.74 C-532.22 948.94 -532.68 948.14 -533.16 947.32 C-533.76 946.27 -533.76 946.27 -534.38 945.2 C-535.25 943.34 -535.25 943.34 -535.25 940.34 C-535.91 940.34 -536.57 940.34 -537.25 940.34 C-549.53 916.29 -560.69 892 -570.32 866.76 C-571.14 864.63 -571.97 862.51 -572.81 860.4 C-575.09 854.64 -576.97 848.96 -578.5 842.96 C-579.27 840.28 -580.24 837.78 -581.31 835.21 C-582.95 831.29 -584 827.52 -584.76 823.34 C-585.3 821.13 -586.19 819.35 -587.25 817.34 C-587.62 816.01 -587.94 814.68 -588.25 813.34 C-588.75 811.7 -588.75 811.7 -589.25 810.02 C-590.25 806.34 -590.25 806.34 -590.69 802.96 C-591.26 799.24 -592.28 795.98 -593.53 792.45 C-594.69 789.05 -595.29 785.99 -595.69 782.4 C-596.07 779.08 -596.99 776.44 -598.25 773.34 C-598.38 770.52 -598.38 770.52 -598.25 768.34 C-598.58 768.34 -598.91 768.34 -599.25 768.34 C-601.98 754.93 -604.5 741.51 -606.44 727.96 C-606.67 726.36 -606.67 726.36 -606.91 724.73 C-607.39 721.27 -607.82 717.81 -608.25 714.34 C-608.33 713.66 -608.42 712.98 -608.5 712.27 C-610.2 698.16 -610.58 684.19 -610.59 669.99 C-610.59 667.68 -610.6 665.37 -610.61 663.06 C-610.62 658.24 -610.62 653.43 -610.62 648.61 C-610.62 643.74 -610.63 638.88 -610.66 634.02 C-610.82 606.17 -610.44 578.91 -606.25 551.34 C-605.97 549.39 -605.97 549.39 -605.68 547.41 C-593.77 466.22 -565.85 386.65 -523.9 316.12 C-522.39 313.57 -520.9 311.02 -519.41 308.46 C-515.03 300.89 -510.54 293.45 -505.57 286.25 C-504.57 284.79 -503.57 283.34 -502.57 281.88 C-493.56 268.67 -484.22 255.83 -474.25 243.34 C-473.5 242.39 -472.76 241.44 -471.99 240.46 C-466.58 233.61 -460.92 226.97 -455.25 220.34 C-454.64 219.63 -454.04 218.92 -453.41 218.19 C-448.37 212.35 -443.1 206.72 -437.85 201.07 C-436.25 199.33 -434.65 197.6 -433.05 195.86 C-420.21 181.86 -420.21 181.86 -413.54 176.1 C-409.4 172.5 -405.41 168.74 -401.44 164.96 C-396.1 159.92 -390.69 155.07 -384.94 150.5 C-382.47 148.52 -380.07 146.48 -377.68 144.41 C-369.82 137.65 -361.6 131.46 -353.25 125.34 C-352.54 124.81 -351.83 124.29 -351.1 123.75 C-284.19 74.29 -206.77 37.57 -45.45 2.61 C-44.03 2.43 -42.62 2.25 -41.2 2.07 C-27.45 0.32 -13.85 0.01 0 0 Z M-24.25 1.34 C-24.25 1.67 -24.25 2 -24.25 2.34 C-22.27 2.34 -20.29 2.34 -18.25 2.34 C-18.25 2.01 -18.25 1.68 -18.25 1.34 C-20.23 1.34 -22.21 1.34 -24.25 1.34 Z M77.75 1.34 C77.75 1.67 77.75 2 77.75 2.34 C79.73 2.34 81.71 2.34 83.75 2.34 C83.75 2.01 83.75 1.68 83.75 1.34 C81.77 1.34 79.79 1.34 77.75 1.34 Z M-598.25 511.34 C-597.25 513.34 -597.25 513.34 -597.25 513.34 Z M-600.25 521.34 C-599.25 523.34 -599.25 523.34 -599.25 523.34 Z M-602.25 532.34 C-601.25 534.34 -601.25 534.34 -601.25 534.34 Z M-603.25 538.34 C-602.25 540.34 -602.25 540.34 -602.25 540.34 Z M-605.25 551.34 C-604.25 554.34 -604.25 554.34 -604.25 554.34 Z M-607.25 566.34 C-606.25 570.34 -606.25 570.34 -606.25 570.34 Z M-608.25 577.34 C-607.25 579.34 -607.25 579.34 -607.25 579.34 Z M-609.25 586.34 C-609.25 588.32 -609.25 590.3 -609.25 592.34 C-608.92 592.34 -608.59 592.34 -608.25 592.34 C-608.25 590.36 -608.25 588.38 -608.25 586.34 C-608.58 586.34 -608.91 586.34 -609.25 586.34 Z M-609.25 688.34 C-609.25 690.32 -609.25 692.3 -609.25 694.34 C-608.92 694.34 -608.59 694.34 -608.25 694.34 C-608.25 692.36 -608.25 690.38 -608.25 688.34 C-608.58 688.34 -608.91 688.34 -609.25 688.34 Z M-608.25 701.34 C-607.25 703.34 -607.25 703.34 -607.25 703.34 Z M-607.25 710.34 C-606.25 714.34 -606.25 714.34 -606.25 714.34 Z M-605.25 726.34 C-604.25 729.34 -604.25 729.34 -604.25 729.34 Z M-603.25 740.34 C-602.25 742.34 -602.25 742.34 -602.25 742.34 Z M-602.25 746.34 C-601.25 748.34 -601.25 748.34 -601.25 748.34 Z M-600.25 757.34 C-599.25 759.34 -599.25 759.34 -599.25 759.34 Z " fill="#0D359E" transform="translate(610.25,-0.3359375)"/>
<path d="M0 0 C0.98 0.14 1.97 0.29 2.98 0.44 C67.41 10.1 129.74 37.54 180 79 C181.3 80.04 181.3 80.04 182.62 81.1 C189.09 86.3 195.25 91.78 201.32 97.44 C203.15 99.14 205 100.84 206.85 102.53 C218.64 113.38 218.64 113.38 223.28 118.97 C225.07 121.08 226.94 123.1 228.83 125.11 C235.35 132.07 241.23 139.42 247 147 C247.49 147.64 247.98 148.28 248.49 148.94 C260.51 164.61 271.05 180.95 281 198 C281.43 198.73 281.86 199.46 282.3 200.21 C314.61 255.74 332.41 317.37 339 381 C339.11 382.02 339.21 383.04 339.32 384.1 C342.1 416.14 341.84 450.18 337 482 C336.79 483.41 336.59 484.82 336.38 486.24 C323.12 576.35 285.04 659.86 190.65 758.88 C188.28 760.78 186.04 762.75 183.79 764.78 C179.17 768.91 174.35 772.68 169.38 776.38 C168.06 777.36 168.06 777.36 166.71 778.36 C159.3 783.84 151.81 789.1 144 794 C143.13 794.55 142.27 795.09 141.38 795.65 C80.65 833.65 12.67 854.21 -59 854.25 C-60.02 854.25 -61.04 854.25 -62.09 854.25 C-78.9 854.23 -95.34 853.5 -112 851 C-113.13 850.83 -114.27 850.67 -115.44 850.5 C-151.21 845.09 -185.2 834.13 -218 819 C-218.82 818.62 -219.64 818.25 -220.49 817.86 C-262.45 798.4 -300.35 769.84 -332.94 737.24 C-334.56 735.63 -336.18 734.02 -337.81 732.41 C-344.33 725.93 -350.29 719.22 -356 712 C-357.1 710.67 -358.2 709.35 -359.3 708.02 C-386.85 674.76 -408.75 636.54 -424.15 596.22 C-424.92 594.21 -425.71 592.22 -426.51 590.22 C-434.89 568.77 -441.13 546.48 -446 524 C-446.19 523.14 -446.38 522.28 -446.57 521.4 C-449.07 509.85 -450.72 498.21 -452.19 486.5 C-452.27 485.83 -452.36 485.15 -452.44 484.45 C-454.09 471.26 -455.15 458.18 -455.2 444.88 C-455.21 443.67 -455.22 442.46 -455.22 441.21 C-455.24 437.33 -455.25 433.45 -455.25 429.56 C-455.25 428.9 -455.25 428.24 -455.25 427.56 C-455.25 407.85 -454.98 388.51 -452 369 C-451.8 367.61 -451.6 366.21 -451.4 364.82 C-446.84 333.33 -439.24 303.13 -429 273 C-428.74 272.22 -428.48 271.45 -428.21 270.65 C-425.74 263.24 -422.81 256.19 -419.46 249.14 C-418.09 246.18 -416.84 243.21 -415.62 240.19 C-399.12 200.24 -373.5 161.48 -344 130 C-342.85 128.69 -341.7 127.38 -340.56 126.06 C-327.26 110.82 -327.26 110.82 -319.88 104.63 C-317.87 102.89 -316.04 101.04 -314.19 99.12 C-309.45 94.33 -304.26 90.2 -299 86 C-297.85 85.06 -296.7 84.12 -295.56 83.18 C-267.92 60.63 -237.66 43.1 -204.5 29.94 C-203.45 29.52 -202.4 29.1 -201.32 28.66 C-163.64 13.64 -125.13 4.39 -85 -1 C-84.08 -1.13 -83.17 -1.27 -82.22 -1.4 C-55.34 -5.28 -26.75 -4.05 0 0 Z " fill="#0D359E" transform="translate(698,205)"/>
<path d="M0 0 C0.86 0.18 1.73 0.36 2.61 0.55 C24.39 5.3 42.29 14.16 59 29 C59.53 29.47 60.07 29.94 60.61 30.43 C77.6 45.58 88.71 62.58 99.6 82.47 C100.71 84.48 101.86 86.47 103.02 88.45 C115.44 110.57 112.69 138.78 106.14 162.18 C102.57 174.17 98.51 186 94.44 197.82 C93.01 201.98 91.58 206.13 90.18 210.29 C89.78 211.48 89.38 212.66 88.96 213.88 C87.31 219.25 86.82 224.38 87 230 C88.32 230.33 89.64 230.66 91 231 C91 231.99 91 232.98 91 234 C91.99 234.33 92.98 234.66 94 235 C88.38 236.12 88.38 236.12 85 235 C85.46 237.5 85.91 240 86.38 242.5 C86.51 243.23 86.65 243.97 86.78 244.73 C87.48 248.43 88.23 252.06 89.25 255.69 C90.01 259.06 90.33 260.82 89 264 C86.41 266.59 84.65 267.85 81.06 268.66 C76.89 270.49 75.89 273.25 74.25 277.25 C73.96 277.91 73.67 278.56 73.37 279.24 C67.15 293.53 67.64 306.73 69 322 C69.66 322 70.32 322 71 322 C71.33 322.66 71.66 323.32 72 324 C72.42 323.61 72.83 323.23 73.26 322.83 C77.48 319.05 81.61 316.3 86.75 313.94 C87.48 313.6 88.21 313.26 88.96 312.92 C113.02 302.26 138.34 301.5 163 311 C183.09 319.4 202.18 328.8 210.97 350.04 C214 358.74 215.25 367.21 215.31 376.38 C215.32 377.48 215.32 377.48 215.33 378.61 C215.26 383.68 214.38 388.12 213 393 C210.84 389.46 210.68 386.34 210.38 382.25 C208.69 366.8 198.31 350.42 187 340 C185.69 338.97 184.36 337.96 183 337 C182.29 336.49 181.58 335.99 180.84 335.46 C158.41 320.85 131.54 319 105.87 323.55 C91.49 326.66 78.84 334 69.94 345.81 C67.2 350.32 66.88 353.51 66.94 358.75 C66.95 360.23 66.95 360.23 66.96 361.73 C66.98 362.48 66.99 363.23 67 364 C71.02 366.43 73.97 368 78.75 368 C82.39 366.88 83.9 366.19 86 363 C86.35 359.13 86.19 355.71 85 352 C81.64 352.03 81.64 352.03 78 353 C75.74 355.98 75.74 355.98 74 359 C73.01 359 72.02 359 71 359 C70.19 356.88 70.19 356.88 70 354 C74.69 347.41 74.69 347.41 78.95 346.66 C82.38 346.42 84.95 346.34 87.93 348.21 C91.1 351.44 92.45 354.42 92.81 358.94 C92.5 364.06 90.44 366.84 86.85 370.37 C86.24 370.91 85.63 371.45 85 372 C84.26 372.66 83.51 373.32 82.75 374 C77.31 375.98 71.75 376.2 66.39 373.86 C61.74 370.97 58.89 368.3 57 363 C54.78 363.83 54.78 363.83 54.1 366.25 C53.8 367.23 53.5 368.21 53.2 369.21 C52.86 370.29 52.52 371.37 52.18 372.49 C51.83 373.63 51.48 374.76 51.12 375.94 C40.53 410.45 40.53 410.45 24.5 419.62 C21.57 421.35 21.57 421.35 20.12 424.38 C21.25 427.75 23.13 429.73 25.59 432.25 C27.74 434.91 28.05 436.98 27.88 440.36 C27.77 441.15 27.67 441.94 27.56 442.75 C27.46 443.55 27.36 444.35 27.25 445.17 C27.17 445.78 27.09 446.38 27 447 C27.62 447.27 28.24 447.54 28.88 447.81 C31 449 31 449 33 452 C33.57 456.62 32.8 459.81 31 464 C28.91 468.95 28.02 472.69 29.59 478 C32.1 484.12 36.23 487.07 42 490 C50.88 493.34 59.82 494.94 69.19 496.12 C71.58 496.43 73.97 496.75 76.36 497.07 C77.91 497.27 77.91 497.27 79.5 497.47 C82 498 82 498 84 500 C84.51 502.9 84.94 505.77 85.31 508.69 C86.42 516.55 88.27 523.66 91.01 531.09 C92 534 92 534 92 537 C91.43 537.24 90.86 537.49 90.27 537.74 C82.27 541.43 75.78 546.48 69 552 C68.19 552.66 67.37 553.31 66.54 553.99 C62.56 557.33 59.63 560.51 57 565 C55.84 563.48 55.84 563.48 55 561 C55.69 558.29 56.46 555.94 57.5 553.38 C57.78 552.66 58.06 551.95 58.35 551.22 C61.86 542.54 66.02 535.32 73 529 C56.48 530.33 44.15 542.85 33.81 554.81 C28.64 561.19 24.31 568.02 20 575 C19.34 575.99 18.68 576.98 18 578 C17.65 570.98 18.68 565.69 21.12 559.12 C21.44 558.25 21.76 557.37 22.09 556.47 C30.24 534.64 44.49 523.57 64.26 512.45 C68.02 510.31 71.11 508.28 74 505 C72.46 503.46 70.83 503.62 68.7 503.35 C67.81 503.24 66.92 503.12 66 503 C65.05 502.88 64.1 502.75 63.12 502.62 C48.58 500.61 36.32 498.3 26.51 486.41 C22.84 480.57 21 473.93 21 467.06 C22 464 22 464 24.12 461 C26.33 458.06 26.33 458.06 26 454.25 C25.38 450.91 25.38 450.91 23 449.88 C22.34 449.59 21.68 449.3 21 449 C19.47 444.96 20.42 442.85 22 439 C21.87 434.76 18.92 432.79 16 430 C13.15 427.22 11.09 425.14 10.75 421 C13.17 415.19 18.42 412.35 23.56 409.06 C35.1 401.51 38.59 389.96 42.31 377.25 C42.68 376.03 43.06 374.81 43.44 373.56 C43.79 372.39 44.13 371.22 44.49 370.02 C44.8 368.96 45.12 367.9 45.44 366.81 C46 363.99 46.08 362.63 45 360 C44.24 359.05 43.47 358.1 42.69 357.12 C37.32 349.92 35.7 339.8 35 331 C34.47 331.22 33.93 331.43 33.38 331.66 C32.64 331.93 31.89 332.21 31.12 332.5 C30.05 332.92 30.05 332.92 28.95 333.34 C21.11 335.09 13.92 333.89 6.38 331.5 C5.51 331.23 4.65 330.97 3.76 330.69 C-4.64 327.98 -12.31 324.28 -20 320 C-20.64 319.65 -21.27 319.3 -21.93 318.94 C-28.54 315.31 -34.99 311.58 -41 307 C-32.69 304.31 -22.99 311.29 -15.75 314.88 C7.15 326.55 7.15 326.55 32 325 C36.67 321.42 37.56 314.98 39.25 309.62 C39.81 307.92 39.81 307.92 40.39 306.18 C40.74 305.08 41.09 303.98 41.45 302.85 C41.94 301.35 41.94 301.35 42.43 299.81 C43.04 296.78 42.99 294.92 42 292 C39.58 290.83 39.58 290.83 37 290 C36.34 289.01 35.68 288.02 35 287 C36.1 286.94 37.19 286.88 38.32 286.82 C39.78 286.73 41.23 286.65 42.69 286.56 C43.41 286.52 44.13 286.48 44.87 286.44 C48.67 286.22 52.29 285.87 56 285 C56.04 284.19 56.07 283.38 56.11 282.55 C56.21 280.95 56.21 280.95 56.31 279.31 C56.37 278.26 56.43 277.2 56.49 276.11 C57.05 272.69 57.89 270.74 60 268 C61.8 266.96 61.8 266.96 63.88 266.38 C64.66 266.15 65.44 265.92 66.24 265.69 C70.6 264.6 74.98 263.59 79.38 262.65 C81.91 262.26 81.91 262.26 83 261 C82.57 255.84 81.8 250.79 80.94 245.69 C78.35 228.2 82.68 213.04 88.62 196.58 C94.44 180.38 99.07 165.27 95 148 C94.34 148 93.68 148 93 148 C92.74 148.54 92.49 149.09 92.22 149.65 C87.47 158.78 81.09 166.61 74 174 C73.31 174.75 72.63 175.5 71.92 176.27 C56.94 192.12 36.37 201.63 17 211 C16.06 211.46 15.12 211.92 14.16 212.39 C-5.49 221.72 -26.92 226.55 -47.95 231.68 C-74.6 238.2 -106.24 248.45 -121.69 273.34 C-126.63 283.36 -129.2 293.85 -129.12 305 C-129.12 305.74 -129.12 306.47 -129.12 307.23 C-129.07 314.18 -128.61 321.08 -128 328 C-128.33 327.01 -128.66 326.02 -129 325 C-129.99 325 -130.98 325 -132 325 C-142.18 302.39 -139.06 282.57 -130.88 259.77 C-122.78 238.49 -104.4 227.07 -84.66 218 C-76.57 214.43 -68.1 211.94 -59.65 209.37 C-48.2 205.85 -38.19 201.31 -28 195 C-26.63 194.16 -26.63 194.16 -25.24 193.3 C-23.03 191.9 -20.85 190.47 -18.69 189 C-17.94 188.49 -17.18 187.99 -16.41 187.47 C-10.3 183.31 -4.56 178.87 1 174 C1.88 173.23 2.76 172.46 3.66 171.67 C5.79 169.79 7.9 167.9 10 166 C7.15 164.57 5.51 165.39 2.43 166.11 C1.29 166.37 0.15 166.63 -1.02 166.89 C-2.83 167.32 -2.83 167.32 -4.69 167.75 C-7.16 168.31 -9.63 168.87 -12.11 169.43 C-14.4 169.95 -16.7 170.48 -19 171 C-27.76 172.99 -35.97 174.51 -45 174 C-46 172 -46 172 -45.44 169.93 C-45.15 169.06 -44.86 168.2 -44.56 167.31 C-42.41 159.69 -41.18 150.93 -43.98 143.34 C-46.13 139.69 -48.01 137.59 -52 136 C-55.74 135.86 -58.04 136.19 -60.94 138.64 C-64.49 142.51 -66.65 145.86 -68 151 C-68.66 151.66 -69.32 152.32 -70 153 C-71.2 156.6 -71.17 159.58 -71.19 163.38 C-71.2 164.68 -71.22 165.99 -71.23 167.34 C-71.01 170.79 -70.35 172.88 -69 176 C-68.22 184.6 -72.94 191.93 -77.91 198.54 C-87.19 209.46 -99 217.17 -111.09 224.65 C-117.7 228.75 -123.91 233.14 -130 238 C-130.71 238.53 -131.42 239.07 -132.15 239.62 C-145.7 250.4 -154.64 268.07 -157 285 C-157.71 293.86 -156.16 302.33 -154.44 311 C-154.3 311.68 -154.17 312.36 -154.04 313.06 C-148.18 342.71 -135.32 367.57 -110.38 385.47 C-101.79 391.78 -93.9 398.78 -86.34 406.29 C-85.48 407.14 -84.61 408 -83.71 408.89 C-81.89 410.7 -80.07 412.51 -78.26 414.32 C-75.52 417.04 -72.76 419.75 -70 422.46 C-60.07 432.3 -51.32 442.07 -44 454 C-43.21 455.24 -42.41 456.49 -41.62 457.73 C-27.94 479.5 -30.48 504.58 -35.63 528.7 C-36.03 531.17 -36.06 533.51 -36 536 C-36.66 536 -37.32 536 -38 536 C-38 534.35 -38 532.7 -38 531 C-38.66 531 -39.32 531 -40 531 C-40.24 530.31 -40.48 529.63 -40.73 528.92 C-52.59 495.25 -68 454.75 -100 435 C-100.99 434.67 -101.98 434.34 -103 434 C-102.75 434.74 -102.49 435.48 -102.23 436.25 C-90.1 471.9 -80.57 508.39 -71.34 544.9 C-66.24 565.1 -59.34 582.71 -41.62 595.06 C-22.4 606.21 3.67 600.91 24.06 595.62 C31.32 593.64 38.22 591.3 45 588 C45.74 587.64 46.48 587.28 47.24 586.92 C59.78 580.77 71.36 573.75 82.71 565.63 C85 564 87.3 562.39 89.61 560.79 C101.21 552.73 111.8 544.82 121 534 C121.86 533.01 122.73 532.02 123.62 531 C133.97 519.08 142.94 506.36 151.41 493.05 C158.74 481.57 158.74 481.57 162 478 C162.66 478 163.32 478 164 478 C164.33 477.01 164.66 476.02 165 475 C166.4 477.81 165.63 479.21 164.88 482.25 C163.82 486.54 162.82 490.83 161.93 495.16 C159.45 507.08 156.2 517.98 151 529 C150.69 529.67 150.37 530.34 150.05 531.04 C148.14 535.1 146.12 539.11 144.02 543.08 C143.36 544.33 142.71 545.58 142.07 546.85 C125.3 580.21 88.63 598.32 56.99 614.46 C53.13 616.45 49.31 618.5 45.5 620.56 C39.76 623.63 34 626.46 28 629 C27.32 629.29 26.64 629.59 25.94 629.89 C7.22 637.92 -11.83 643.22 -32 646 C-33.24 646.17 -34.48 646.34 -35.76 646.52 C-68.26 650.54 -102.33 646.1 -131 630 C-131.65 629.64 -132.31 629.28 -132.98 628.91 C-141.59 624.14 -148.98 618.97 -156 612 C-156.83 611.21 -157.66 610.41 -158.52 609.6 C-163.64 604.62 -168.29 599.41 -172.73 593.82 C-174.23 591.96 -175.76 590.13 -177.33 588.34 C-185.26 579.24 -191.59 569.2 -198 559 C-195.55 557.37 -193.79 556.46 -191.09 555.48 C-175.8 549.86 -164.16 543.94 -157 528.5 C-153.21 519.01 -152.29 507.68 -156 498 C-161.44 487.46 -161.44 487.46 -170.88 480.81 C-174.06 479.99 -176.73 479.84 -180 480 C-179.13 480.52 -178.27 481.03 -177.38 481.56 C-170.59 486.15 -165.36 493.16 -163 501 C-161.6 509.86 -161.75 518.45 -167.16 525.92 C-176.2 536.15 -186.74 541.21 -200.45 542.17 C-222.48 543.14 -238.81 537.65 -255.6 523.2 C-259.19 519.91 -262.63 516.51 -266 513 C-266.82 512.17 -267.65 511.35 -268.5 510.5 C-269.32 509.67 -270.15 508.85 -271 508 C-271.56 507.49 -272.12 506.97 -272.7 506.45 C-295.57 484.87 -306.76 454.46 -308.11 423.48 C-308.77 394.55 -304.49 367.14 -294.68 339.89 C-294.1 338.27 -293.54 336.63 -293 335 C-298.93 341.18 -303.29 347.96 -307.62 355.31 C-308.27 356.38 -308.91 357.44 -309.57 358.54 C-315.71 368.85 -320.31 379.01 -323.56 390.56 C-323.86 391.6 -324.16 392.65 -324.46 393.72 C-334.35 428.87 -336.22 460.11 -318.09 493.1 C-300.96 522.92 -265.74 546.18 -233 556 C-228.37 557.18 -223.7 558.13 -219 559 C-219 559.33 -219 559.66 -219 560 C-239.51 564.48 -260.69 559.57 -279.03 550.02 C-281.48 548.75 -283.95 547.53 -286.41 546.3 C-297.63 540.66 -308.11 534.75 -318 527 C-318.87 526.34 -319.75 525.67 -320.64 524.99 C-341.2 509.03 -357.06 490.7 -368 467 C-368.74 465.4 -368.74 465.4 -369.5 463.77 C-379.22 441.78 -377.65 419.83 -369.42 397.76 C-362.4 379.77 -352.73 363.12 -342.65 346.71 C-341.43 344.7 -340.22 342.68 -339.03 340.66 C-333.25 330.84 -326.99 321.4 -320.56 312 C-319.09 309.84 -317.62 307.68 -316.15 305.52 C-315.18 304.1 -314.21 302.68 -313.25 301.26 C-310 296.5 -306.8 291.71 -303.62 286.91 C-300.37 282.01 -297.05 277.19 -293.5 272.5 C-289.88 267.64 -286.44 262.7 -283.12 257.62 C-279.53 252.12 -275.67 246.92 -271.62 241.75 C-261.33 228.52 -253.02 214.1 -244.58 199.64 C-241.29 194.05 -237.78 188.81 -233.86 183.63 C-230.27 178.56 -227.4 173.05 -224.43 167.6 C-221.8 162.82 -219.14 158.05 -216.49 153.28 C-215.5 151.5 -214.51 149.71 -213.52 147.93 C-208.09 138.13 -208.09 138.13 -205.39 133.45 C-198.76 121.95 -193.2 110.01 -187.6 98 C-176.97 75.25 -176.97 75.25 -171 67 C-170.33 66.06 -169.65 65.12 -168.96 64.14 C-157.87 48.99 -146.51 35.66 -130.04 26.18 C-127.7 24.83 -125.36 23.45 -123.03 22.08 C-106.89 12.65 -91.13 4.82 -73 0 C-72.32 -0.18 -71.65 -0.36 -70.95 -0.55 C-48.9 -6.06 -22.04 -4.66 0 0 Z " fill="#FAFCFC" transform="translate(717,363)"/>
<path d="M0 0 C0.92 0.74 1.85 1.49 2.8 2.25 C5.55 4.48 8.28 6.74 11 9 C12.5 10.25 12.5 10.25 14.04 11.52 C22.77 18.83 30.91 26.62 38.92 34.71 C40.95 36.77 43 38.82 45.05 40.86 C46.38 42.19 47.7 43.53 49.03 44.86 C49.63 45.46 50.22 46.06 50.84 46.67 C57.57 53.48 63.66 60.76 69.69 68.19 C74.03 73.51 78.47 78.69 83.19 83.69 C88.72 89.57 93.73 95.75 98.61 102.18 C100 104.01 101.42 105.82 102.83 107.63 C122.77 133.45 139.18 161.88 152.82 191.46 C153.78 193.52 154.75 195.57 155.76 197.61 C176.25 239.94 186.3 287.47 191 334 C191.1 334.91 191.19 335.82 191.29 336.75 C194.35 369.87 193.04 404.15 188 437 C187.89 437.7 187.79 438.41 187.68 439.13 C181.15 481.95 169.02 524.59 148.98 563.11 C147.99 565.03 147.03 566.96 146.07 568.91 C135.55 590.37 123.52 611 109.3 630.24 C107.91 632.12 106.54 634 105.17 635.89 C98.64 644.79 91.69 653.21 84.36 661.46 C82.7 663.34 81.07 665.23 79.44 667.12 C68.63 679.42 57.45 691.72 44.95 702.33 C42.63 704.32 40.38 706.38 38.12 708.44 C33.24 712.84 28.19 716.96 23 721 C22.44 721.45 21.87 721.9 21.29 722.36 C-13.42 749.87 -53.42 773.57 -95 789 C-95.86 789.33 -96.72 789.65 -97.61 789.99 C-128 801.48 -159.18 809.63 -191.25 814.75 C-192.48 814.95 -193.71 815.15 -194.97 815.35 C-215.34 818.46 -235.62 819.35 -256.2 819.32 C-260.1 819.31 -263.99 819.34 -267.89 819.36 C-290.41 819.42 -312.74 817.61 -334.94 813.75 C-336.16 813.54 -337.38 813.33 -338.64 813.11 C-372.66 807.09 -405.11 797.19 -437 784 C-438.22 783.5 -438.22 783.5 -439.46 782.99 C-450.69 778.38 -461.35 772.8 -472 767 C-472.88 766.53 -473.75 766.06 -474.65 765.57 C-496.88 753.56 -518.17 739.67 -538 724 C-538.99 723.22 -538.99 723.22 -540 722.43 C-548.37 715.82 -556.4 708.96 -564.17 701.65 C-566.51 699.46 -568.88 697.34 -571.31 695.25 C-574.63 692.39 -577.71 689.34 -580.75 686.19 C-582.63 684.36 -584.54 682.67 -586.53 680.96 C-591.59 676.56 -596.32 671.84 -601.05 667.08 C-602.56 665.57 -604.08 664.05 -605.6 662.54 C-610.94 657.2 -616.11 651.77 -621 646 C-621.85 645.04 -622.69 644.07 -623.56 643.08 C-685.22 571.54 -721.84 479.67 -728.19 358.19 C-728.19 357.24 -728.19 356.3 -728.18 355.32 C-728.05 290.84 -713.86 227.67 -687 169 C-686.62 168.16 -686.24 167.32 -685.85 166.46 C-668.88 129.16 -646.01 94.75 -619 64 C-618.34 63.24 -617.69 62.49 -617.01 61.71 C-615.35 59.8 -613.68 57.9 -612 56 C-611.37 55.28 -610.73 54.56 -610.08 53.82 C-604.4 47.44 -598.49 41.34 -592.44 35.31 C-591.54 34.41 -590.65 33.52 -589.73 32.59 C-584.65 27.52 -579.47 22.65 -574 18 C-572.99 17.12 -571.98 16.25 -570.97 15.37 C-494.16 -50.42 -393.34 -92.26 0 0 Z M-394 -40.88 C-394.67 -40.67 -395.33 -40.46 -396.02 -40.25 C-404.55 -37.6 -412.8 -34.55 -421 -31 C-422.45 -30.4 -423.91 -29.81 -425.36 -29.23 C-450.99 -18.86 -475.69 -6.44 -498 10 C-498.74 10.54 -499.47 11.08 -500.23 11.64 C-509.67 18.62 -518.73 25.99 -527.56 33.74 C-528.82 34.84 -530.09 35.93 -531.36 37.02 C-535.46 40.54 -539.28 44.25 -543.06 48.1 C-544.83 49.84 -546.65 51.42 -548.56 53 C-551.67 55.61 -554.25 58.46 -556.87 61.55 C-559.04 64.05 -561.29 66.44 -563.57 68.84 C-570.54 76.22 -576.9 83.89 -583 92 C-583.54 92.71 -584.07 93.42 -584.63 94.14 C-605.48 121.66 -624.02 151.52 -637.46 183.39 C-638.88 186.73 -640.42 189.98 -642 193.25 C-646.01 201.93 -649.01 210.93 -652 220 C-652.35 221.07 -652.71 222.15 -653.08 223.25 C-662.4 251.69 -668.86 280.38 -673 310 C-673.25 311.65 -673.25 311.65 -673.5 313.33 C-679.04 351.09 -678.61 392.25 -673 430 C-672.82 431.23 -672.65 432.46 -672.46 433.73 C-668.65 459.76 -662.63 484.96 -654.89 510.08 C-654.04 512.86 -653.22 515.64 -652.41 518.43 C-651.35 521.94 -650.15 525.32 -648.69 528.69 C-646.8 533.1 -645 537.53 -643.25 542 C-628.82 578.3 -609.41 612.47 -585 643 C-584.28 643.91 -583.55 644.81 -582.8 645.75 C-580.56 648.52 -578.28 651.26 -576 654 C-575.58 654.51 -575.16 655.01 -574.73 655.53 C-567.45 664.26 -559.8 672.51 -551.74 680.52 C-549.93 682.32 -548.13 684.13 -546.33 685.94 C-539.53 692.75 -532.57 699.03 -525 705 C-523.74 706.05 -522.48 707.1 -521.23 708.16 C-469.89 751.15 -406.24 779.66 -340.38 790.88 C-339.25 791.07 -338.13 791.26 -336.97 791.45 C-318.56 794.38 -300.13 795.38 -281.5 795.31 C-280.5 795.31 -279.51 795.31 -278.48 795.31 C-261.49 795.25 -244.84 794.45 -228 792 C-226.87 791.84 -225.73 791.68 -224.56 791.51 C-189.05 786.28 -154.35 775.49 -122 760 C-121.08 759.57 -120.17 759.14 -119.23 758.69 C-96.09 747.75 -74.35 734.52 -54 719 C-53.38 718.53 -52.75 718.06 -52.11 717.57 C-35.33 704.77 -19.64 690.7 -4.69 675.81 C-3.93 675.06 -3.18 674.32 -2.41 673.54 C2.27 668.86 6.7 664.03 11 659 C11.89 657.98 12.78 656.96 13.67 655.94 C69.79 590.51 103.34 509.94 115.7 425.06 C115.97 423.17 116.26 421.28 116.55 419.4 C122.04 381.98 121.35 341.41 116 304 C115.82 302.75 115.65 301.5 115.46 300.21 C108.8 254.52 95.64 210.78 76 169 C75.57 168.09 75.14 167.18 74.7 166.24 C68.28 152.67 60.82 139.8 53 127 C52.49 126.16 51.98 125.32 51.46 124.46 C44.77 113.42 37.51 103.06 29.52 92.93 C28.08 91.1 26.67 89.26 25.27 87.4 C20.78 81.44 16.12 75.74 11.07 70.25 C9.25 68.28 7.49 66.28 5.75 64.25 C-5.14 51.76 -5.14 51.76 -17.25 40.5 C-19.05 38.96 -20.67 37.33 -22.31 35.62 C-26.87 31.01 -31.94 27.05 -37 23 C-38.11 22.08 -39.23 21.17 -40.34 20.25 C-94.29 -24 -159.36 -49.95 -228 -60 C-228.88 -60.13 -229.76 -60.27 -230.67 -60.41 C-284.85 -68.41 -342.45 -56.87 -394 -40.88 Z " fill="#FAFCFC" transform="translate(919,264)"/>
<path d="M0 0 C0.8 0.17 1.6 0.35 2.42 0.52 C3.27 0.7 4.13 0.88 5.01 1.07 C32.01 6.94 58.92 14.35 84.35 25.21 C85.31 25.61 86.26 26.02 87.24 26.43 C119.66 40.18 150.24 56.94 178.35 78.21 C179.52 79.08 180.69 79.95 181.85 80.82 C189.47 86.54 196.7 92.67 203.88 98.93 C205.07 99.97 206.28 101 207.49 102.04 C279.68 164.08 320.59 263.12 331.35 356.21 C331.51 357.46 331.51 357.46 331.67 358.73 C340.79 435.32 327.52 516.27 295.35 586.21 C294.88 587.25 294.41 588.29 293.92 589.36 C282.77 613.68 269.53 636.2 254.35 658.21 C253.87 658.92 253.38 659.63 252.88 660.36 C246.22 670.07 238.88 679.17 231.35 688.21 C230.87 688.79 230.39 689.38 229.9 689.97 C220.02 701.9 209.53 713.12 198.6 724.09 C197.81 724.88 197.02 725.68 196.2 726.5 C191.42 731.28 186.5 735.82 181.35 740.21 C180.39 741.06 179.43 741.9 178.43 742.77 C144.28 772.21 105.61 794.32 65.35 814.21 C64.62 814.63 63.88 815.05 63.12 815.49 C61.35 816.21 61.35 816.21 58.35 815.21 C66.27 811.25 74.19 807.29 82.35 803.21 C82.35 802.55 82.35 801.89 82.35 801.21 C83.78 800.13 83.78 800.13 85.8 798.96 C86.54 798.52 87.28 798.09 88.04 797.63 C88.85 797.16 89.65 796.7 90.48 796.21 C110.9 784.01 129.94 769.19 147.33 752.99 C149.59 750.9 151.89 748.88 154.21 746.87 C158.46 743.17 162.45 739.26 166.42 735.27 C167.09 734.61 167.75 733.95 168.44 733.26 C172.95 728.74 177.2 724.06 181.35 719.21 C182.23 718.2 183.11 717.19 183.99 716.18 C211.45 684.12 233.94 648.52 251.48 610.12 C252.22 608.51 252.97 606.9 253.73 605.3 C254.99 602.62 256.18 599.93 257.35 597.21 C257.63 596.58 257.9 595.96 258.18 595.31 C276.83 551.65 287.48 504.45 291.35 457.21 C291.45 456.09 291.54 454.97 291.64 453.82 C292.48 442.91 292.55 432.02 292.54 421.09 C292.54 420.12 292.54 419.15 292.54 418.16 C292.48 383.61 288.8 349.97 281.35 316.21 C281.05 314.81 281.05 314.81 280.74 313.38 C277.75 299.82 273.68 286.68 269.29 273.52 C268.91 272.38 268.91 272.38 268.52 271.21 C264.06 257.91 259.31 244.85 253.28 232.17 C252.24 229.97 251.22 227.75 250.21 225.53 C233.34 189.05 211.05 152.53 183.35 123.21 C182.22 121.93 181.1 120.63 179.98 119.34 C170.71 108.72 161.21 98.25 150.5 89.08 C148.02 86.92 145.63 84.69 143.23 82.46 C136.87 76.68 130.19 71.41 123.35 66.21 C122.64 65.66 121.92 65.12 121.18 64.55 C82.76 35.37 38.44 12.53 -8.65 1.21 C-5.16 -1.11 -3.96 -0.77 0 0 Z " fill="#0D359E" transform="translate(750.6455078125,208.7880859375)"/>
<path d="M0 0 C0.66 0.23 1.31 0.45 1.99 0.69 C8.57 2.98 15.04 5.28 21.31 8.31 C22.58 8.92 23.85 9.53 25.11 10.14 C26.07 10.6 26.07 10.6 27.05 11.07 C28.99 12 30.95 12.89 32.92 13.77 C60.46 26.21 85.98 42.77 110 61 C110.74 61.51 111.48 62.03 112.24 62.55 C113.11 63.27 113.11 63.27 114 64 C114 64.66 114 65.32 114 66 C114.81 66.35 114.81 66.35 115.64 66.71 C118.66 68.36 121.11 70.43 123.75 72.62 C124.73 73.44 125.72 74.26 126.73 75.1 C127.48 75.73 128.23 76.35 129 77 C125.59 77 125.03 76.54 122.4 74.54 C121.69 74.01 120.98 73.48 120.25 72.94 C119.11 72.07 119.11 72.07 117.94 71.19 C108.94 64.54 99.66 58.62 90 53 C89.31 52.59 88.61 52.18 87.9 51.76 C42.14 25.06 -8.36 7.96 -60.38 -1.25 C-62.32 -1.6 -62.32 -1.6 -64.31 -1.96 C-89.61 -6.34 -114.98 -7.53 -140.6 -7.45 C-143.69 -7.44 -146.78 -7.44 -149.87 -7.47 C-181.08 -7.69 -211.52 -4.99 -242 2 C-242.95 2.21 -243.89 2.42 -244.87 2.63 C-271.92 8.61 -297.99 18.17 -323 30 C-324.33 30.62 -324.33 30.62 -325.68 31.26 C-338.62 37.38 -350.85 44.46 -363 52 C-364.46 52.9 -364.46 52.9 -365.96 53.82 C-383.23 64.45 -400.12 75.36 -416 88 C-416.63 88.5 -417.27 89.01 -417.92 89.52 C-425.92 95.88 -433.71 102.38 -441.16 109.37 C-443.33 111.38 -445.53 113.33 -447.78 115.26 C-452.4 119.29 -456.74 123.59 -461.06 127.94 C-461.83 128.7 -462.59 129.46 -463.38 130.24 C-467.58 134.45 -471.61 138.74 -475.49 143.25 C-477.36 145.42 -479.31 147.52 -481.25 149.62 C-549.8 225.81 -587.15 329.97 -588.54 466.07 C-586.17 505.1 -578.43 542.93 -566 580 C-565.64 581.09 -565.27 582.18 -564.9 583.3 C-559.91 598.1 -554.01 612.32 -547.25 626.39 C-546.16 628.67 -545.08 630.96 -544.02 633.25 C-539.57 642.62 -534.24 651.4 -528.75 660.2 C-528.16 661.14 -527.58 662.08 -526.98 663.04 C-526.45 663.88 -525.93 664.71 -525.39 665.57 C-524.01 667.99 -522.97 670.39 -522 673 C-525.64 669.68 -528.14 666 -530.75 661.88 C-531.16 661.24 -531.57 660.61 -532 659.96 C-535 655.26 -535 655.26 -535 653 C-535.66 653 -536.32 653 -537 653 C-538.11 651.58 -538.11 651.58 -539.33 649.54 C-540.02 648.39 -540.02 648.39 -540.73 647.21 C-541.23 646.36 -541.73 645.5 -542.25 644.62 C-542.77 643.74 -543.29 642.86 -543.83 641.96 C-548.19 634.54 -552.34 627.01 -556.44 619.44 C-557.02 618.37 -557.59 617.3 -558.19 616.2 C-563.39 606.48 -567.89 596.56 -571.94 586.31 C-572.28 585.45 -572.62 584.58 -572.98 583.68 C-573.67 581.93 -574.36 580.18 -575.05 578.43 C-575.63 576.93 -576.22 575.44 -576.82 573.95 C-589.49 542.11 -596.95 508.8 -602 475 C-602.18 473.8 -602.36 472.6 -602.55 471.36 C-612.67 401.19 -601.34 328.44 -577.88 262.12 C-577.48 261 -577.08 259.88 -576.68 258.73 C-573.86 250.94 -570.56 243.47 -567 236 C-566.14 234.16 -565.29 232.32 -564.43 230.47 C-547.32 194.07 -526.12 160.49 -500 129.88 C-499.34 129.1 -499.34 129.1 -498.67 128.32 C-490.19 118.49 -481.27 109.09 -472.09 99.91 C-470.5 98.31 -468.91 96.7 -467.32 95.09 C-460.87 88.61 -454.17 82.7 -447 77 C-445.9 76.07 -444.8 75.12 -443.71 74.17 C-412.82 47.23 -374.94 23.29 -336.69 8.5 C-333.99 7.4 -331.48 6.26 -328.9 4.94 C-325.67 3.29 -322.47 2.03 -319 0.94 C-315.77 -0.09 -312.59 -1.16 -309.42 -2.36 C-271.51 -16.69 -230.5 -25.59 -190 -28 C-188.6 -28.09 -188.6 -28.09 -187.16 -28.18 C-122.53 -32.15 -60.87 -21.15 0 0 Z " fill="#0D359E" transform="translate(802,204)"/>
<path d="M0 0 C2.74 2.43 4.22 5.01 5.9 8.25 C6.45 9.32 7.01 10.39 7.58 11.49 C8.17 12.65 8.77 13.81 9.38 15 C9.68 15.6 9.99 16.19 10.3 16.81 C12.55 21.2 14.78 25.6 17 30 C17.58 31.15 18.16 32.31 18.76 33.5 C38.56 72.97 51.86 114.76 58.81 158.38 C59.01 159.58 59.2 160.79 59.4 162.04 C62.56 182.97 63.38 203.92 63.31 225.06 C63.31 226.27 63.31 227.47 63.31 228.71 C63.05 319.24 33.85 407.59 -43 510 C-43.96 511.11 -43.96 511.11 -44.93 512.24 C-46.61 514.17 -48.3 516.09 -50 518 C-50.64 518.72 -51.28 519.44 -51.93 520.19 C-57.56 526.51 -63.39 532.58 -69.38 538.56 C-70.24 539.44 -71.11 540.32 -72.01 541.23 C-77.26 546.5 -82.68 551.35 -88.51 555.98 C-91 558 -93.35 560.12 -95.69 562.31 C-102.39 568.4 -109.69 573.68 -117 579 C-117.67 579.49 -118.35 579.99 -119.04 580.5 C-134.95 592.11 -151.68 602.5 -168.98 611.9 C-170.36 612.65 -171.75 613.41 -173.13 614.17 C-250.05 656.51 -342.81 674.09 -430 664 C-431.1 663.88 -432.2 663.75 -433.34 663.63 C-462.85 660.21 -491.75 654.18 -520 645 C-520.96 644.7 -521.92 644.39 -522.9 644.08 C-546.35 636.57 -568.68 626.33 -590.69 615.38 C-591.74 614.85 -591.74 614.85 -592.81 614.32 C-594.8 613.33 -596.78 612.34 -598.76 611.34 C-599.9 610.76 -601.03 610.19 -602.2 609.6 C-604.59 608.23 -606.22 607.07 -608 605 C-603.46 605.67 -599.52 607.38 -595.38 609.25 C-594.66 609.57 -593.94 609.88 -593.21 610.21 C-589.37 611.92 -585.56 613.67 -581.75 615.44 C-536.49 635.96 -487.39 646.98 -438 651 C-436.8 651.11 -436.8 651.11 -435.57 651.21 C-430.38 651.66 -425.21 651.88 -420 652 C-418.23 652.04 -418.23 652.04 -416.42 652.08 C-359.04 653.26 -294.67 646.55 -242.16 621.96 C-239.73 620.88 -237.26 620 -234.75 619.12 C-223.52 615.11 -212.88 609.56 -202.26 604.15 C-200.7 603.36 -199.14 602.57 -197.58 601.78 C-161.92 583.75 -129.12 560.78 -99.84 533.62 C-97.23 531.21 -94.59 528.85 -91.94 526.5 C-84.46 519.78 -77.31 512.72 -70.79 505.07 C-68.67 502.62 -66.46 500.25 -64.25 497.88 C-58.96 492.07 -54.13 485.97 -49.34 479.74 C-48.06 478.08 -46.77 476.43 -45.47 474.78 C-29.71 454.7 -16.33 433.03 -4.35 410.52 C-3.11 408.21 -1.87 405.92 -0.61 403.62 C2.59 397.76 5.62 391.94 7.95 385.66 C9.11 382.73 10.43 379.91 11.78 377.07 C14.99 370.16 17.76 363.15 20.38 356 C20.61 355.36 20.84 354.72 21.09 354.06 C34.39 317.55 42.73 278.73 46 240 C46.09 238.98 46.18 237.95 46.27 236.9 C47.11 225.81 47.2 214.74 47.19 203.62 C47.19 202.65 47.19 201.67 47.18 200.67 C47.15 185.69 46.84 170.88 45 156 C44.92 155.36 44.84 154.73 44.76 154.07 C40.25 117.27 33.82 78.09 18.02 44.28 C16.79 41.54 15.74 38.75 14.69 35.94 C12.71 30.73 10.6 25.61 8.38 20.5 C8.09 19.83 7.8 19.16 7.5 18.47 C5.89 14.81 4.11 11.39 2 8 C0.65 5.02 0 3.3 0 0 Z " fill="#0D359E" transform="translate(1042,412)"/>
<path d="M0 0 C0 3 0 3 -1.65 4.88 C-2.41 5.58 -3.16 6.28 -3.94 7 C-66.46 67.78 -99.02 167.22 -108 252 C-108.1 252.97 -108.21 253.93 -108.32 254.93 C-118.73 355.92 -94.82 461.97 -13.36 582.04 C-10.3 585.75 -7.17 589.39 -4 593 C-3.29 593.81 -2.58 594.61 -1.86 595.45 C0.41 597.99 2.7 600.5 5 603 C5.8 603.87 5.8 603.87 6.61 604.76 C17.98 617.19 29.77 629.11 42.99 639.6 C45.09 641.27 47.17 642.96 49.24 644.66 C58.26 652.03 67.59 658.72 77.31 665.12 C78.03 665.6 78.75 666.08 79.48 666.57 C91.95 674.84 104.59 682.35 118 689 C118 689.66 118 690.32 118 691 C118.95 691.29 119.9 691.58 120.88 691.88 C124 693 124 693 126 695 C121.88 694.37 118.58 693.01 114.84 691.19 C114.25 690.91 113.67 690.63 113.06 690.34 C111.16 689.42 109.27 688.49 107.38 687.56 C106.72 687.24 106.07 686.93 105.4 686.6 C79.91 674.17 54.98 660.71 32 644 C31.35 643.53 30.71 643.06 30.04 642.58 C-3.27 618.25 -3.27 618.25 -15.11 604.21 C-16.96 602.04 -18.89 599.96 -20.85 597.88 C-26.9 591.41 -32.37 584.59 -37.77 577.58 C-39.45 575.42 -41.2 573.3 -42.94 571.19 C-63.32 545.67 -79.6 516.71 -93 487 C-93.29 486.36 -93.58 485.71 -93.88 485.05 C-97.22 477.6 -100.15 470.06 -102.82 462.35 C-103.65 459.98 -104.52 457.63 -105.41 455.29 C-118.29 421.06 -126.06 384.45 -129 348 C-129.09 346.99 -129.17 345.98 -129.26 344.94 C-130.12 333.65 -130.24 322.38 -130.25 311.06 C-130.25 310.05 -130.25 309.05 -130.25 308.01 C-130.24 290.16 -129.3 272.71 -127 255 C-126.86 253.86 -126.71 252.73 -126.56 251.55 C-121.2 210.49 -109.66 168.55 -91.97 131.07 C-90.85 128.69 -89.76 126.3 -88.66 123.91 C-73.86 91.93 -54.52 61.86 -32.25 34.56 C-31.44 33.56 -31.44 33.56 -30.62 32.54 C-27.59 28.82 -24.47 25.33 -21 22 C-19.23 20.29 -18.1 19.2 -17 17 C-16.3 16.46 -15.6 15.93 -14.88 15.38 C-11.77 12.81 -9.32 10.02 -6.71 6.97 C-4.58 4.52 -2.33 2.26 0 0 Z " fill="#0D359E" transform="translate(348,333)"/>
<path d="M0 0 C5.92 4.09 9.3 9.34 12 16 C12.4 19.74 12.31 20.59 10 23.69 C6.44 29.58 7.45 34.86 8.95 41.37 C11.99 53.5 15.1 62.05 26 69 C29.55 70.78 33.13 70.63 37 70 C49.13 64.43 54.28 53.28 60 42 C60.66 42 61.32 42 62 42 C62.94 36.28 63 32.53 61 27 C60.38 22.7 60.6 19.79 62.56 15.88 C65.42 12.5 68.54 9.74 72 7 C74.28 10.42 74.47 12.33 74.81 16.38 C74.92 17.5 75.03 18.62 75.14 19.77 C74.98 23.44 74.2 25.11 72 28 C70.79 28.8 70.79 28.8 69.56 29.62 C63.86 34.91 62.32 43.97 61.84 51.49 C61.64 57.64 61.77 63.59 65 69 C68.48 72.49 72.41 74.28 77.31 74.75 C87.04 74.19 96.62 64.8 103 58 C103.7 57.26 104.4 56.51 105.12 55.75 C106.91 53.13 107.28 52.04 107.81 49.06 C108.73 44.76 110.75 42.77 114.18 40.12 C116.42 38.74 118.38 38.16 121 38 C119.17 43.19 116.41 48.54 112 52 C111.01 52 110.02 52 109 52 C108.74 52.57 108.48 53.14 108.21 53.73 C106.91 56.16 105.38 58.14 103.69 60.31 C94.09 73.98 92.72 91.84 91 108 C90.24 107.8 89.48 107.59 88.69 107.38 C87.66 107.11 86.63 106.84 85.56 106.56 C84.55 106.3 83.54 106.03 82.5 105.75 C73.02 103.71 63.47 103.76 53.81 103.75 C53.05 103.75 52.28 103.75 51.49 103.75 C17.93 103.78 -19.98 106.6 -50.76 121.12 C-53 122 -53 122 -57 122 C-57.23 121.47 -57.45 120.95 -57.68 120.4 C-68.46 93.8 -68.46 93.8 -89 75 C-90.18 74.55 -91.35 74.09 -92.56 73.62 C-96.91 71.57 -100.02 68.76 -103 65 C-103 64.34 -103 63.68 -103 63 C-97.33 63.38 -94.11 63.78 -90 68 C-89.44 68.94 -88.88 69.89 -88.3 70.86 C-85.56 74.6 -82.86 76.33 -78.88 78.56 C-78.21 78.95 -77.55 79.33 -76.86 79.72 C-64.25 87.23 -64.25 87.23 -50 89 C-45.77 87.17 -44.06 85.06 -42 81 C-40.15 69.34 -44.75 58.63 -51 49 C-53.26 46.21 -55.45 44.72 -58.56 43.06 C-62.68 40.8 -64.35 38.19 -65.69 33.69 C-66.1 30.1 -66.06 26.61 -66 23 C-61.97 23.53 -59.86 24.58 -56.88 27.31 C-56.21 27.91 -55.55 28.5 -54.87 29.11 C-50.11 33.92 -50.11 33.92 -49.73 37.66 C-49.74 38.64 -49.74 39.62 -49.75 40.62 C-49.32 47.74 -46.49 51.66 -42 57 C-41.48 57.7 -40.97 58.4 -40.44 59.12 C-34.65 66.55 -24.23 73.92 -14.75 75.34 C-9.34 75.43 -6.17 74.78 -2 71 C3.85 62.87 4.18 54.04 4.31 44.31 C4.33 43.5 4.35 42.7 4.37 41.86 C4.36 35.72 3.44 30.93 -0.61 26.07 C-1.13 25.57 -1.65 25.07 -2.19 24.56 C-4.53 21.91 -4.99 21.03 -5.69 17.38 C-5.24 11.29 -2.37 5.54 0 0 Z " fill="#FAFCFC" transform="translate(642,243)"/>
<path d="M0 0 C3.74 1.25 4.3 2.53 6.5 5.75 C9.63 10.2 12.93 14.34 16.5 18.44 C31.42 35.71 31.42 35.71 31.28 46.72 C30.69 51.5 27.85 54.25 24.38 57.31 C20.83 59.83 18.89 60.16 14.56 60.19 C13.59 60.2 12.63 60.22 11.63 60.23 C9 60 9 60 6 58 C5.5 58.99 5.5 58.99 5 60 C5.3 60.58 5.6 61.16 5.91 61.76 C8.05 66.17 7.51 71.22 7 76 C5.38 79.38 5.38 79.38 3 82 C2.53 82.53 2.06 83.07 1.57 83.62 C-2.55 88.07 -6.08 90.01 -12.19 90.5 C-19.16 90.29 -24.32 86.55 -29.25 81.87 C-35.62 74.98 -41.28 67.43 -47 60 C-47.48 59.37 -47.97 58.75 -48.46 58.1 C-51.32 54.41 -54.16 50.71 -57 47 C-55.51 46.5 -55.51 46.5 -54 46 C-53.01 46.66 -52.02 47.32 -51 48 C-46.56 48.45 -44.19 47.97 -40.62 45.31 C-39.77 44.67 -38.91 44.04 -38.02 43.38 C-33.01 39.43 -28.05 35.41 -23.12 31.36 C-18.68 27.72 -14.16 24.18 -9.6 20.69 C-6.15 18.01 -3.04 15.15 0 12 C0.33 11.67 0.66 11.34 1 11 C1.14 7.16 1.18 3.68 0 0 Z " fill="#F9FCFC" transform="translate(252,930)"/>
<path d="M0 0 C10.04 8.41 19.27 22.19 21.32 35.29 C21.51 39.62 21.42 43.95 21.32 48.29 C21.31 49.07 21.31 49.86 21.3 50.66 C21.04 55.44 19.47 58.33 16.23 61.67 C11.63 65.56 7.35 68.18 1.2 68.39 C-7.28 67.47 -13.73 64.07 -20.68 59.29 C-21.3 58.88 -21.92 58.48 -22.55 58.07 C-30.37 52.38 -33.92 42.15 -36.68 33.29 C-36.88 32.67 -37.07 32.06 -37.27 31.42 C-38.73 23.83 -39.01 13.84 -34.68 7.29 C-25.06 -3.82 -13.5 -8.62 0 0 Z " fill="#0D359E" transform="translate(903.68359375,1081.71484375)"/>
<path d="M0 0 C10.73 11.2 14.45 25.39 14.43 40.41 C14.18 51.85 10.14 60.03 2 68 C-0.49 67.02 -2.95 66.02 -5.39 64.93 C-13.37 61.45 -19.5 61.58 -28 63 C-28 62.34 -28 61.68 -28 61 C-28.99 61 -29.98 61 -31 61 C-39.39 47.87 -41.14 32.76 -37.88 17.62 C-35.87 10.76 -32.93 3.42 -26.62 -0.5 C-17.65 -4.21 -8.54 -5.89 0 0 Z " fill="#0D359E" transform="translate(603,52)"/>
<path d="M0 0 C4.86 1.56 8.38 4.36 12.31 7.5 C12.96 8 13.6 8.5 14.27 9.01 C15.89 10.29 17.45 11.64 19 13 C19 13.66 19 14.32 19 15 C19.99 15.28 19.99 15.28 21 15.56 C29.16 19.47 35.57 26.92 39.44 35 C40.45 40.39 39.86 44.41 37.25 49.25 C34.56 52.54 31.82 55.09 28 57 C26.23 57.12 24.46 57.18 22.69 57.19 C21.27 57.21 21.27 57.21 19.82 57.23 C16.86 56.99 14.69 56.24 12 55 C12.33 55.99 12.66 56.98 13 58 C14.01 66.31 12.14 74.38 10.42 82.47 C8.23 92 8.23 92 11 101 C10.01 100.67 9.02 100.34 8 100 C8 99.34 8 98.68 8 98 C7.43 97.73 6.86 97.47 6.27 97.2 C3.89 95.94 1.88 94.51 -0.25 92.88 C-0.96 92.34 -1.66 91.8 -2.39 91.24 C-2.92 90.83 -3.45 90.42 -4 90 C-3.73 88.84 -3.47 87.68 -3.2 86.48 C2.77 66.33 2.77 66.33 -1 47 C-1.99 46.51 -1.99 46.51 -3 46 C-3 45.34 -3 44.68 -3 44 C-7.07 47.85 -10.4 51.98 -13.69 56.5 C-14.42 57.48 -14.42 57.48 -15.16 58.47 C-19.74 64.64 -19.74 64.64 -20.81 72.06 C-19.99 75.03 -19.02 76.71 -17 79 C-20.8 77.34 -23.89 74.87 -27.12 72.31 C-32.62 68.02 -38.23 63.93 -44 60 C-43.67 59.34 -43.34 58.68 -43 58 C-42.01 58.33 -41.02 58.66 -40 59 C-36.58 59.5 -36.58 59.5 -33 59 C-29.08 55.54 -25.86 51.52 -22.62 47.44 C-22.12 46.8 -21.61 46.17 -21.09 45.51 C-16.64 39.89 -12.31 34.17 -8 28.44 C-7.37 27.59 -6.73 26.75 -6.08 25.88 C1.37 16.95 1.37 16.95 3 6 C1.62 2.65 1.62 2.65 0 0 Z " fill="#FAFCFC" transform="translate(327,1015)"/>
<path d="M0 0 C1.31 2.62 0.75 3.48 -0.07 6.25 C-0.32 7.14 -0.58 8.03 -0.84 8.94 C-1.25 10.4 -1.25 10.4 -1.68 11.89 C-5.35 25.34 -7.28 38.89 -9.12 52.69 C-9.61 56.26 -10.09 59.84 -10.59 63.41 C-10.9 65.6 -11.2 67.8 -11.48 70 C-13.9 87.31 -21.28 103.04 -33 116 C-33.6 116.67 -34.2 117.34 -34.82 118.04 C-40.59 124.12 -47.3 129.01 -54 134 C-54.79 134.59 -55.58 135.18 -56.39 135.79 C-56.92 136.19 -57.45 136.59 -58 137 C-57.73 136.36 -57.46 135.72 -57.19 135.06 C-51.84 121.28 -47.72 106.89 -43.85 92.64 C-43.59 91.66 -43.32 90.69 -43.05 89.68 C-41.97 85.69 -40.89 81.69 -39.83 77.7 C-32.23 49.24 -23.91 19.22 0 0 Z " fill="#FAFCFC" transform="translate(930,763)"/>
<path d="M0 0 C0 3 0 3 -1.56 4.69 C-3.37 7.6 -3.06 9.59 -2.56 12.91 C-1.64 16.33 0.41 18.76 2.69 21.38 C3.69 22.58 4.69 23.79 5.69 25 C6.22 25.64 6.76 26.28 7.31 26.94 C9.73 29.89 12.05 32.92 14.37 35.95 C24.31 50.41 24.31 50.41 38.44 59.81 C41.68 60.05 44 59.19 47 58 C44.43 60.76 41.54 62.9 38.5 65.12 C33.25 69.02 28.2 73.06 23.18 77.25 C21 79 21 79 19 80 C20.2 77.51 21.45 75.32 23 73 C22.02 67.92 20.16 64.26 17.19 60.06 C16.8 59.51 16.41 58.97 16.01 58.4 C12.2 53.1 8.06 48.08 3.9 43.05 C-1.41 36.6 -6.25 29.86 -11 23 C-9.56 30.85 -7.61 38.52 -5.52 46.23 C-5.19 47.46 -4.86 48.68 -4.52 49.95 C-3.65 53.18 -2.78 56.41 -1.91 59.65 C-1.02 62.96 -0.12 66.27 0.77 69.58 C2.51 76.06 4.25 82.53 6 89 C5.01 89.49 5.01 89.49 4 90 C1.54 88.88 1.54 88.88 -1.59 87.12 C-2.16 86.81 -2.73 86.49 -3.31 86.17 C-5.19 85.12 -7.06 84.06 -8.94 83 C-10.23 82.27 -11.53 81.55 -12.83 80.83 C-16.21 78.94 -19.59 77.04 -22.96 75.14 C-28.11 72.25 -33.25 69.37 -38.41 66.5 C-40.17 65.51 -41.93 64.52 -43.69 63.52 C-44.76 62.93 -45.82 62.33 -46.92 61.72 C-48.32 60.93 -48.32 60.93 -49.75 60.12 C-51.88 58.85 -51.88 58.85 -54 59 C-48.82 66.28 -43.43 73.36 -37.88 80.35 C-35.9 82.85 -33.95 85.36 -32.03 87.9 C-31.54 88.53 -31.05 89.17 -30.55 89.82 C-29.63 91.03 -28.71 92.25 -27.79 93.47 C-24.21 98.13 -21.2 100.54 -15.44 101.75 C-12.53 101.96 -10.69 101.97 -8 101 C-10.69 103.9 -13.77 106.15 -16.94 108.5 C-17.98 109.27 -19.02 110.05 -20.09 110.84 C-21.53 111.91 -21.53 111.91 -23 113 C-24.33 114 -25.67 115 -27 116 C-26 114 -25 112 -24 110 C-25.63 98.8 -33.26 90.46 -40.38 82.11 C-43.09 78.93 -45.65 75.64 -48.19 72.31 C-48.81 71.5 -48.81 71.5 -49.45 70.67 C-51.34 68.22 -53.17 65.75 -54.94 63.21 C-58.35 58.33 -58.35 58.33 -63.62 55.81 C-66.91 55.99 -69.09 56.5 -72 58 C-72 56 -72 56 -70.53 54.48 C-68.37 52.64 -66.19 50.81 -64 49 C-63.29 48.4 -62.59 47.79 -61.86 47.17 C-60.85 46.34 -60.85 46.34 -59.81 45.5 C-59.2 44.99 -58.59 44.49 -57.96 43.97 C-55.26 42.63 -53.88 43.23 -51 44 C-48.72 45.07 -48.72 45.07 -46.36 46.41 C-45.02 47.17 -45.02 47.17 -43.65 47.95 C-42.21 48.78 -42.21 48.78 -40.75 49.62 C-39.76 50.19 -38.76 50.76 -37.74 51.34 C-28.68 56.54 -19.73 61.91 -10.81 67.32 C-9.8 67.94 -8.8 68.55 -7.76 69.18 C-6.86 69.72 -5.97 70.27 -5.04 70.83 C-3.25 72.08 -3.25 72.08 -2 72 C-2.19 71.32 -2.38 70.64 -2.57 69.95 C-4.34 63.55 -6.11 57.15 -7.87 50.75 C-8.77 47.45 -9.68 44.16 -10.59 40.88 C-11.64 37.09 -12.68 33.31 -13.72 29.52 C-14.05 28.34 -14.37 27.17 -14.71 25.95 C-15.01 24.85 -15.31 23.75 -15.62 22.62 C-15.89 21.65 -16.16 20.68 -16.43 19.69 C-17 16.99 -17.27 14.75 -17 12 C-14.73 9.83 -14.73 9.83 -11.75 7.81 C-10.78 7.14 -9.8 6.46 -8.8 5.77 C-6 4 -6 4 -3.77 2.89 C-1.81 2.02 -1.81 2.02 0 0 Z " fill="#FAFCFC" transform="translate(990,1004)"/>
<path d="M0 0 C3.97 2.87 6.84 7.26 8 12 C8.68 20.4 6.03 26.25 1 33 C-0.42 34.62 -1.86 36.22 -3.31 37.81 C-4.88 39.54 -6.44 41.27 -8 43 C-8.65 43.71 -9.3 44.42 -9.96 45.15 C-15.28 51.4 -17.61 58.27 -20 66 C-20.66 66 -21.32 66 -22 66 C-22 65.34 -22 64.68 -22 64 C-22.66 64 -23.32 64 -24 64 C-24.26 63.39 -24.51 62.79 -24.78 62.16 C-29.94 50.87 -38.66 42.75 -48.31 35.19 C-52.02 30.38 -53.36 24.26 -53 18.25 C-52.27 13.62 -50.32 11.24 -47 8 C-43.55 6.28 -39.77 6.63 -36 7 C-33.31 8.31 -33.31 8.31 -31 10 C-29.01 11.02 -27.01 12.02 -25 13 C-24.64 12.47 -24.27 11.94 -23.9 11.39 C-17.89 2.95 -10.84 -2.07 0 0 Z " fill="#F8FAFB" transform="translate(720,729)"/>
<path d="M0 0 C10.73 -0.73 20.76 1.93 29 9.02 C37.89 17.85 43.19 27.02 43.31 39.62 C43.33 50.18 40.14 58.14 33 66 C29.22 69.63 25.21 72.88 21 76 C28.83 78.29 35.84 78.71 43.5 75.56 C46.5 73.69 47.8 72.86 48.62 69.38 C48.81 68.2 48.81 68.2 49 67 C49.66 67 50.32 67 51 67 C50.15 74.48 47.52 78.92 42 84 C35.16 88.93 27.18 88.96 19 88 C14.36 86.08 10.54 83.54 7 80 C4.78 79.61 2.55 79.31 0.31 79.06 C-4.98 78.36 -9.25 77.56 -14 75 C-14.78 74.6 -15.55 74.2 -16.36 73.79 C-24.78 69.18 -31 63.47 -34.5 54.38 C-38.12 41.7 -36.51 30.21 -30.25 18.81 C-25.84 13.3 -21.77 8.38 -15 6 C-14.17 5.65 -13.35 5.29 -12.5 4.93 C-11.67 4.58 -10.85 4.23 -10 3.88 C-8.76 3.35 -8.76 3.35 -7.5 2.8 C-4.86 1.95 -2.76 1.85 0 2 C0 1.34 0 0.68 0 0 Z M-14 8 C-22.86 18.98 -23.99 32.43 -23 46 C-21.83 53.84 -19.26 60.34 -15 67 C-14.01 67 -13.02 67 -12 67 C-12 67.66 -12 68.32 -12 69 C-11.01 68.83 -10.02 68.67 -9 68.5 C-0.5 67.38 4.43 68.25 12.27 71.91 C15.13 73.25 15.13 73.25 19 73 C24.94 68.69 28.3 60.88 30 54 C31.9 38.18 29.11 24.19 20 11 C19.62 10.39 19.24 9.78 18.86 9.16 C15.45 4.24 10.61 3.04 5 2 C-1.71 2 -8.8 3.5 -14 8 Z " fill="#FAFCFC" transform="translate(587,46)"/>
<path d="M0 0 C6.76 1.36 13.09 3.29 19.56 5.62 C20.93 6.11 20.93 6.11 22.33 6.61 C24.56 7.4 26.78 8.2 29 9 C29 9.66 29 10.32 29 11 C29.99 11.33 30.98 11.66 32 12 C30.01 12.23 28.03 12.46 26.04 12.68 C23.81 12.97 23.81 12.97 21 14 C19.85 16.26 19.85 16.26 19 19 C18.52 20.4 18.52 20.4 18.04 21.83 C17.55 23.31 17.55 23.31 17.06 24.81 C15.49 29.59 13.81 34.3 12 39 C19.2 42.38 26.57 45.1 34.06 47.75 C35.79 48.37 35.79 48.37 37.55 49 C40.37 50 43.18 51 46 52 C48.4 48.4 49.68 44.8 51.12 40.75 C51.54 39.64 51.54 39.64 51.96 38.51 C53.63 33.87 54.42 30 54 25 C52.6 22.13 51.25 20.25 49 18 C51 17 51 17 53.52 17.71 C54.56 18.09 55.6 18.48 56.66 18.87 C57.79 19.28 58.91 19.69 60.06 20.11 C61.83 20.77 61.83 20.77 63.62 21.44 C64.81 21.87 65.99 22.31 67.21 22.75 C70.14 23.83 73.07 24.91 76 26 C76 26.66 76 27.32 76 28 C77.32 28 78.64 28 80 28 C79.67 28.66 79.34 29.32 79 30 C76.07 29.76 76.07 29.76 73.14 29.51 C69.82 30.27 68.92 32.24 67 35 C65.87 37.61 64.87 40.16 63.94 42.84 C63.53 43.97 63.53 43.97 63.12 45.13 C62.26 47.54 61.41 49.96 60.56 52.38 C60 53.96 59.43 55.54 58.87 57.13 C57.48 61 56.13 64.89 54.78 68.77 C54.02 70.94 53.23 73.1 52.44 75.26 C51.97 76.58 51.5 77.91 51.03 79.23 C50.61 80.37 50.19 81.51 49.77 82.69 C48.65 87.51 49.46 91.37 51 96 C53 97.21 53 97.21 55 98 C51.12 97.32 47.54 96.23 43.82 94.93 C42.09 94.33 42.09 94.33 40.32 93.71 C39.12 93.29 37.92 92.87 36.69 92.44 C35.47 92.01 34.25 91.59 33 91.15 C30 90.1 27 89.05 24 88 C24.33 87.34 24.66 86.68 25 86 C26.24 85.96 27.48 85.92 28.75 85.88 C31.34 85.6 32.57 85.45 34.37 83.53 C37.63 78.07 39.83 72.53 41.81 66.5 C42.12 65.58 42.44 64.66 42.76 63.72 C43.51 61.48 44.26 59.24 45 57 C41.13 54.5 37.27 52.87 32.95 51.3 C32.29 51.06 31.63 50.82 30.95 50.57 C28.87 49.82 26.78 49.06 24.69 48.31 C23.26 47.8 21.84 47.28 20.42 46.76 C16.95 45.5 13.47 44.25 10 43 C9.81 43.64 9.63 44.28 9.44 44.94 C7.93 50.08 6.26 55.07 4.31 60.06 C2.26 65.75 1.22 69.99 2 76 C3.32 78.52 3.32 78.52 5 80 C-1.13 79.34 -6.65 77.08 -12.38 74.94 C-13.4 74.56 -14.42 74.18 -15.47 73.79 C-17.98 72.87 -20.49 71.94 -23 71 C-22.5 70.01 -22.5 70.01 -22 69 C-20.91 68.88 -19.81 68.75 -18.69 68.62 C-14.45 67.91 -13.66 67.25 -11 64 C-9.57 61.07 -9.57 61.07 -8.45 57.75 C-8 56.51 -7.55 55.27 -7.09 53.99 C-6.62 52.66 -6.15 51.33 -5.69 50 C-5.2 48.64 -4.72 47.28 -4.23 45.93 C-3.27 43.22 -2.31 40.51 -1.35 37.8 C-0.17 34.46 1.06 31.13 2.31 27.82 C2.96 26.07 3.6 24.31 4.25 22.56 C4.55 21.78 4.85 21.01 5.16 20.21 C6.89 15.4 7.13 12.12 6 7 C5.88 5.86 5.88 5.86 5.75 4.69 C5.08 2.7 5.08 2.7 2.44 1.75 C1.63 1.5 0.83 1.26 0 1 C0 0.67 0 0.34 0 0 Z " fill="#FAFCFC" transform="translate(445,1093)"/>
<path d="M0 0 C-0.96 0.4 -0.96 0.4 -1.94 0.81 C-4.33 1.89 -4.33 1.89 -5 5 C-5.48 12.36 -4.08 18.25 -1.86 25.24 C-1.37 26.8 -1.37 26.8 -0.88 28.4 C-0.2 30.59 0.49 32.78 1.19 34.97 C2.25 38.31 3.28 41.67 4.32 45.03 C4.99 47.16 5.66 49.29 6.33 51.43 C6.79 52.93 6.79 52.93 7.26 54.46 C9.14 60.31 10.68 64.16 16.25 67.25 C17.12 67.62 17.12 67.62 18 68 C18 68.66 18 69.32 18 70 C19.49 70.49 19.49 70.49 21 71 C16.9 72.37 12.79 73.72 8.69 75.06 C7.52 75.45 6.35 75.84 5.15 76.24 C4.03 76.61 2.91 76.97 1.76 77.35 C0.73 77.69 -0.3 78.03 -1.36 78.38 C-4 79 -4 79 -7 78 C-6.53 77.55 -6.05 77.09 -5.56 76.62 C-2.39 73.33 -2.7 70.2 -2.75 65.83 C-3.17 61.06 -4.79 56.82 -6.5 52.38 C-6.83 51.47 -7.17 50.56 -7.51 49.62 C-8.33 47.41 -9.16 45.2 -10 43 C-14.06 43 -16.59 43.7 -20.41 44.97 C-21.65 45.37 -22.88 45.78 -24.16 46.2 C-25.46 46.63 -26.76 47.07 -28.06 47.5 C-30.61 48.35 -33.17 49.19 -35.72 50.03 C-36.85 50.41 -37.99 50.79 -39.15 51.17 C-42 52 -42 52 -45 52 C-43.89 56.34 -42.74 60.66 -41.55 64.98 C-41.05 66.81 -40.57 68.65 -40.09 70.49 C-38.19 77.2 -38.19 77.2 -33.5 82.12 C-31.01 83.46 -28.53 84.75 -26 86 C-30.1 87.37 -34.21 88.72 -38.31 90.06 C-40.06 90.65 -40.06 90.65 -41.85 91.24 C-42.97 91.61 -44.09 91.97 -45.24 92.35 C-46.27 92.69 -47.3 93.03 -48.36 93.38 C-51 94 -51 94 -54 93 C-53.01 92.01 -53.01 92.01 -52 91 C-48.48 83.96 -51.6 74.54 -53.92 67.55 C-54.22 66.6 -54.52 65.66 -54.83 64.68 C-55.47 62.71 -56.11 60.73 -56.76 58.76 C-57.75 55.75 -58.71 52.74 -59.67 49.72 C-60.3 47.79 -60.92 45.85 -61.55 43.92 C-61.98 42.58 -61.98 42.58 -62.41 41.22 C-64.12 36.06 -66.23 31.67 -69 27 C-69 26.34 -69 25.68 -69 25 C-71.97 25 -74.94 25 -78 25 C-77.34 24.67 -76.68 24.34 -76 24 C-76 23.34 -76 22.68 -76 22 C-55.47 15.23 -55.47 15.23 -46 14 C-47.93 16.02 -49.63 17.42 -52 19 C-54.29 25.86 -52.48 31.74 -50.25 38.31 C-50 39.12 -49.74 39.93 -49.48 40.77 C-49.23 41.54 -48.97 42.32 -48.7 43.11 C-48.47 43.81 -48.24 44.51 -48 45.23 C-46.7 47.53 -45.47 48.13 -43 49 C-40.66 48.44 -40.66 48.44 -38.31 47.25 C-35.03 45.81 -32.02 44.67 -28.5 44 C-24.13 43.14 -20.24 41.58 -16.16 39.8 C-14 39 -14 39 -11 39 C-11.9 35.81 -12.82 32.62 -13.75 29.44 C-14.13 28.09 -14.13 28.09 -14.52 26.72 C-16.11 21.29 -18.08 16.84 -21 12 C-21 11.34 -21 10.68 -21 10 C-23.97 10 -26.94 10 -30 10 C-29.67 9.01 -29.34 8.02 -29 7 C-26.87 6.02 -26.87 6.02 -24.08 5.18 C-23.07 4.87 -22.07 4.56 -21.03 4.25 C-19.97 3.94 -18.91 3.63 -17.81 3.31 C-16.77 2.99 -15.73 2.67 -14.65 2.34 C-9.58 0.83 -5.33 -0.18 0 0 Z " fill="#FAFCFC" transform="translate(838,1102)"/>
<path d="M0 0 C0.99 0.5 0.99 0.5 2 1 C1.2 1.52 0.39 2.03 -0.44 2.56 C-3.2 4.82 -3.2 4.82 -4.06 8.06 C-3.97 13.62 -2.14 17.92 0 23 C0.46 24.11 0.92 25.22 1.39 26.36 C4.29 33.23 7.32 40.02 10.51 46.75 C11.54 49 12.51 51.27 13.43 53.56 C16.25 60.9 16.25 60.9 22.12 65.69 C23.41 66.15 24.7 66.59 26 67 C27.34 67.65 28.68 68.31 30 69 C29.06 69.36 28.11 69.73 27.14 70.1 C19.62 73.04 12.41 76.16 5.29 80 C4.54 80.33 3.78 80.66 3 81 C2.34 80.67 1.68 80.34 1 80 C1.47 79.55 1.95 79.09 2.44 78.62 C5.34 75.6 5.39 72.79 5.35 68.66 C4.68 63.52 2.26 59.05 0 54.44 C-0.48 53.43 -0.95 52.42 -1.45 51.38 C-2.62 48.91 -3.8 46.45 -5 44 C-10.7 45.79 -16.12 47.83 -21.5 50.44 C-22.79 51.05 -24.09 51.67 -25.38 52.28 C-26.3 52.72 -26.3 52.72 -27.25 53.17 C-30.8 54.85 -34.4 56.42 -38 58 C-37.42 63.11 -35.79 67.07 -33.56 71.62 C-33.25 72.28 -32.94 72.93 -32.62 73.61 C-31.75 75.41 -30.88 77.21 -30 79 C-29.64 79.78 -29.28 80.55 -28.91 81.36 C-27.44 84.02 -25.76 84.77 -23 86 C-20.01 86.52 -17.03 86.81 -14 87 C-15.49 89.98 -17.58 90.09 -20.69 91.19 C-27.13 93.56 -33.06 96.5 -39.1 99.74 C-42 101 -42 101 -45 100 C-44.55 99.59 -44.09 99.18 -43.62 98.75 C-41.88 96.87 -40.95 95.38 -40 93 C-40.34 86.73 -43.16 80.78 -45.74 75.16 C-46.28 73.95 -46.28 73.95 -46.84 72.71 C-47.99 70.16 -49.15 67.61 -50.31 65.06 C-51.08 63.36 -51.85 61.65 -52.62 59.95 C-54.72 55.29 -56.85 50.64 -59 46 C-59.51 44.9 -60.02 43.79 -60.55 42.65 C-60.98 41.75 -61.41 40.86 -61.86 39.93 C-62.38 38.83 -62.38 38.83 -62.92 37.71 C-65.24 34.03 -69.06 33.23 -73 32 C-69.22 29.48 -65.26 27.73 -61.12 25.88 C-59.92 25.32 -59.92 25.32 -58.69 24.75 C-51.37 21.45 -51.37 21.45 -47 22 C-47.52 22.85 -48.03 23.69 -48.56 24.56 C-51.28 31.07 -48.56 36.98 -46.18 43.27 C-44.53 47.08 -42.71 50.83 -40 54 C-39.01 54.33 -38.02 54.66 -37 55 C-36.61 54.53 -36.22 54.05 -35.81 53.56 C-33.57 51.63 -31.87 51.56 -29 51 C-28.38 50.53 -27.76 50.05 -27.12 49.56 C-24.28 47.47 -21.39 46.91 -18 46 C-15.35 44.84 -12.89 43.37 -10.38 41.93 C-9.26 41.29 -8.15 40.66 -7 40 C-8.08 37.31 -9.16 34.62 -10.25 31.94 C-10.55 31.19 -10.85 30.43 -11.16 29.66 C-12.66 25.98 -14.22 22.49 -16.23 19.07 C-18 16 -18 16 -18 14 C-20.97 13.67 -23.94 13.34 -27 13 C-23.58 8.98 -19.82 7.3 -15.06 5.31 C-14.36 5.01 -13.66 4.7 -12.93 4.38 C-9.3 2.82 -5.92 1.66 -2 1 C-1.34 0.67 -0.68 0.34 0 0 Z " fill="#FAFCFC" transform="translate(429,85)"/>
<path d="M0 0 C2.02 1.71 3.82 3.48 5.61 5.42 C6.15 5.97 6.7 6.52 7.25 7.08 C15.2 15.59 17.94 24.94 17.83 36.36 C17.52 40.76 16.36 44.4 14.61 48.42 C14.36 49.08 14.1 49.73 13.84 50.4 C9.92 59.41 3 66.62 -5.99 70.53 C-16.63 74.5 -27.81 75.06 -38.39 70.42 C-48.03 65.43 -55.94 59.09 -59.89 48.73 C-63.36 36.54 -61.98 24.83 -55.93 13.75 C-53.42 9.76 -51.71 7.39 -47.39 5.42 C-46.02 4.13 -44.67 2.8 -43.39 1.42 C-42.73 1.75 -42.07 2.08 -41.39 2.42 C-41.87 2.85 -42.35 3.27 -42.85 3.71 C-43.48 4.29 -44.11 4.88 -44.76 5.48 C-45.39 6.05 -46.01 6.62 -46.66 7.21 C-51.91 13.94 -50.91 23.37 -50.39 31.42 C-48.86 41.38 -44.15 50.96 -37.39 58.42 C-34.33 60.65 -34.33 60.65 -30.95 62.61 C-29.28 63.62 -29.28 63.62 -27.58 64.65 C-21.68 67.92 -16.19 69.82 -9.39 69.42 C-2.94 67.4 2.1 64.21 5.61 58.42 C6.27 55.54 6.54 53.33 6.61 50.42 C6.66 49.42 6.71 48.41 6.77 47.37 C7.26 30.66 -0.11 17.92 -10.96 5.64 C-15.86 0.8 -21.68 -0.71 -28.39 -1.58 C-31.53 -1.53 -34.28 -1.15 -37.39 -0.58 C-36.73 -1.24 -36.07 -1.9 -35.39 -2.58 C-34.4 -2.58 -33.41 -2.58 -32.39 -2.58 C-32.39 -3.24 -32.39 -3.9 -32.39 -4.58 C-21.5 -7 -9.52 -6.3 0 0 Z " fill="#FAFCFC" transform="translate(917.38671875,1079.578125)"/>
<path d="M0 0 C3.03 0.07 6.04 0.2 9.06 0.38 C10.33 0.39 10.33 0.39 11.63 0.41 C15.56 0.68 18.07 1.07 20.92 3.92 C22.77 6.54 24.39 9.22 26 12 C27.22 13.91 28.45 15.81 29.69 17.71 C30.98 19.74 32.27 21.78 33.56 23.81 C38.91 32.21 44.3 40.58 49.81 48.88 C50.39 49.75 50.97 50.63 51.57 51.54 C52.11 52.35 52.65 53.16 53.21 53.99 C53.91 55.05 53.91 55.05 54.63 56.13 C56.14 58.3 56.14 58.3 59 61 C59 58.03 59 55.06 59 52 C59.66 52 60.32 52 61 52 C60.84 51.32 60.67 50.64 60.5 49.94 C59.93 46.58 59.93 43.4 60 40 C60.66 40 61.32 40 62 40 C61.84 39.48 61.67 38.97 61.5 38.44 C60.85 35.27 60.94 32.23 61 29 C61.66 29 62.32 29 63 29 C62.72 26.44 62.42 23.87 62.12 21.31 C62.05 20.59 61.97 19.87 61.89 19.13 C61.42 15.17 60.96 11.54 59 8 C55.95 7.1 55.95 7.1 53 7 C53.33 6.34 53.66 5.68 54 5 C59.28 5.33 64.56 5.66 70 6 C70 6.66 70 7.32 70 8 C72.31 8 74.62 8 77 8 C77 8.33 77 8.66 77 9 C75.91 9.1 74.81 9.21 73.69 9.31 C69.94 10.01 69.23 10.17 67 13 C64.87 20.4 64.33 27.91 63.71 35.57 C63.6 36.84 63.49 38.12 63.38 39.43 C63.1 42.79 62.82 46.15 62.54 49.5 C62.26 52.94 61.97 56.38 61.68 59.82 C61.11 66.55 60.55 73.27 60 80 C57 80 57 80 54.71 78.11 C51.08 74.25 48.46 69.68 45.69 65.19 C38.7 54.03 31.44 43.07 24.1 32.13 C20.05 26.1 16.03 20.05 12 14 C11.43 20.4 10.86 26.81 10.29 33.21 C10.1 35.39 9.9 37.57 9.71 39.74 C9.43 42.88 9.15 46.02 8.88 49.16 C8.79 50.12 8.7 51.09 8.61 52.08 C7.1 62.49 7.1 62.49 10 72 C12.48 74.15 15.06 75.56 18 77 C14.77 76.86 11.54 76.71 8.31 76.56 C7.4 76.52 6.49 76.48 5.55 76.44 C4.66 76.4 3.78 76.36 2.86 76.32 C2.05 76.28 1.24 76.24 0.4 76.21 C-2.12 75.99 -4.53 75.54 -7 75 C-5 73 -5 73 -1.5 71.69 C2.04 70.36 2.04 70.36 3.38 67.81 C4.18 64.21 4.63 60.67 5 57 C5.66 57 6.32 57 7 57 C6.67 52.71 6.34 48.42 6 44 C6.66 44 7.32 44 8 44 C7.67 40.37 7.34 36.74 7 33 C7.66 33 8.32 33 9 33 C8.75 31.14 8.75 31.14 8.5 29.25 C8.12 26.42 8 23.88 8 21 C8.66 21 9.32 21 10 21 C9.55 18.92 9.09 16.83 8.62 14.75 C8.37 13.59 8.11 12.43 7.85 11.23 C7.14 8.51 6.51 6.36 5 4 C2.46 2.72 2.46 2.72 0 2 C0 1.34 0 0.68 0 0 Z " fill="#FAFCFC" transform="translate(569,1130)"/>
<path d="M0 0 C4.6 1.49 7.5 3.75 11 7 C11 7.66 11 8.32 11 9 C11.99 9.33 12.98 9.66 14 10 C13.34 10.33 12.68 10.66 12 11 C11.28 10.69 10.56 10.38 9.81 10.06 C5.33 8.37 1.62 8.34 -2.83 10.15 C-6.56 12.33 -9.31 14.86 -12.31 17.94 C-12.85 18.46 -13.39 18.99 -13.94 19.53 C-16.63 22.24 -18.46 24.18 -19 28 C-17.87 29.78 -17.87 29.78 -16.06 31.31 C-15.42 31.91 -14.78 32.51 -14.11 33.13 C-13.07 34.06 -13.07 34.06 -12 35 C-11.29 35.63 -10.58 36.26 -9.86 36.9 C-8.51 38.08 -7.16 39.26 -5.8 40.42 C-4 42 -4 42 -2.46 43.63 C-0.29 45.66 2.18 46.19 5 47 C8.64 43.12 10 40.36 10 35 C8.93 32.16 7.57 29.59 6 27 C9.55 27.58 11.18 28.83 13.67 31.38 C14.34 32.05 15 32.73 15.68 33.42 C16.37 34.13 17.05 34.83 17.75 35.56 C18.8 36.63 18.8 36.63 19.86 37.72 C21.58 39.47 23.29 41.23 25 43 C22.49 44.25 21.42 43.84 18.69 43.38 C15.42 42.97 14.23 42.9 11.12 44.25 C9.3 45.76 7.59 47.24 6 49 C9.17 56.69 18.49 63.65 26 67 C29.95 68.03 34.21 68.77 38 67 C40.22 65.4 42.06 63.89 44 62 C44.49 61.53 44.99 61.06 45.5 60.57 C49.6 55.9 49.65 51.22 49.45 45.17 C48.83 40.76 47.2 37.83 45 34 C45.33 33.01 45.66 32.02 46 31 C50.62 35.62 55.24 40.24 60 45 C58.3 48.4 57.49 49.7 54.88 52.12 C51.14 55.73 47.98 59.67 44.8 63.77 C43.28 65.66 41.83 67.41 40 69 C39.34 69 38.68 69 38 69 C37.75 69.58 37.51 70.15 37.25 70.75 C35.8 73.36 34.11 75.01 31.94 77.06 C26.84 82.03 22.41 87.42 18 93 C18 90 18 90 19 87 C17.07 76.07 8.55 69.5 0.65 62.48 C-1.59 60.47 -3.78 58.41 -5.97 56.36 C-15.75 46.05 -15.75 46.05 -27.88 39.81 C-31.3 40.02 -32.6 40.6 -35 43 C-35.66 42.67 -36.32 42.34 -37 42 C-34.68 38.78 -32.14 35.79 -29.54 32.79 C-28.18 31.2 -26.86 29.57 -25.56 27.94 C-23.19 25.22 -20.79 23.07 -18.04 20.77 C-9.84 13.82 -9.84 13.82 -4 5 C-2.69 3.31 -1.37 1.64 0 0 Z " fill="#FAFCFC" transform="translate(1029,959)"/>
<path d="M0 0 C4.01 0.61 7.07 1.88 10.62 3.81 C12.04 4.56 12.04 4.56 13.48 5.33 C18.07 8.37 19.4 11.6 20.58 16.88 C20.85 18.07 21.12 19.25 21.4 20.47 C21.68 21.75 21.96 23.03 22.25 24.34 C22.55 25.67 22.85 27 23.16 28.32 C24.12 32.52 25.06 36.73 26 40.94 C27.09 45.81 28.19 50.68 29.3 55.55 C29.74 57.49 30.17 59.44 30.6 61.39 C30.87 62.58 31.14 63.76 31.42 64.99 C31.65 66.03 31.89 67.07 32.13 68.15 C33.04 71.12 34.29 73.41 36 76 C38.36 71.74 38.36 71.74 39 67 C39.66 67 40.32 67 41 67 C41.26 66.17 41.51 65.34 41.77 64.48 C43.38 59.91 45.48 55.65 47.61 51.3 C49.51 47.33 49.51 47.33 50 43 C50.66 43 51.32 43 52 43 C53.7 33.5 53.7 33.5 50 25 C49.01 24.01 49.01 24.01 48 23 C52.46 22.63 55.24 23.8 59.19 25.81 C60.23 26.33 61.28 26.86 62.36 27.39 C65 29 65 29 67 32 C65.17 32.25 65.17 32.25 63.31 32.5 C59.68 33.46 59.11 33.86 56.72 37.04 C52.64 44.03 49.5 51.56 46.19 58.94 C44.83 61.95 43.47 64.96 42.11 67.96 C41.61 69.07 41.61 69.07 41.09 70.2 C37.48 78.18 33.75 86.09 30 94 C29.01 94 28.02 94 27 94 C23.9 86.51 22.11 78.75 20.24 70.89 C19.89 69.43 19.54 67.96 19.19 66.5 C18.26 62.68 17.35 58.86 16.44 55.03 C14.97 48.89 13.49 42.75 12.01 36.62 C11.5 34.48 10.99 32.34 10.48 30.2 C10.16 28.89 9.85 27.58 9.53 26.27 C9.26 25.13 8.99 23.99 8.71 22.81 C8.02 19.95 8.02 19.95 7 17 C1.27 28.75 -4.35 40.54 -9.62 52.5 C-10.05 53.45 -10.48 54.4 -10.91 55.37 C-13.06 60.28 -14.74 64.62 -15 70 C-13.64 72.92 -12.27 74.73 -10 77 C-13.79 76.25 -17.07 74.69 -20.56 73.06 C-21.7 72.54 -22.83 72.01 -24 71.47 C-27 70 -27 70 -30 68 C-27 67 -27 67 -24.06 66.75 C-20.19 65.8 -19.27 64.17 -17 61 C-16.34 61 -15.68 61 -15 61 C-14.34 58.03 -13.68 55.06 -13 52 C-12.34 52 -11.68 52 -11 52 C-9.53 47.7 -8.23 43.38 -7 39 C-6.34 39 -5.68 39 -5 39 C-4.6 37.72 -4.6 37.72 -4.19 36.41 C-2.58 31.81 -0.45 27.51 1.66 23.12 C3.86 18 4.87 12.55 4 7 C2.12 4.15 2.12 4.15 0 2 C0 1.34 0 0.68 0 0 Z " fill="#FAFCFC" transform="translate(882,86)"/>
<path d="M0 0 C4.95 0.23 9.01 3.02 13.19 5.44 C13.91 5.85 14.64 6.25 15.38 6.67 C20.72 9.72 20.72 9.72 23 12 C24.7 12.75 26.4 13.5 28.12 14.21 C35.69 17.39 35.69 17.39 37 20 C38.84 20.82 38.84 20.82 41.12 21.56 C46.03 23.46 50.53 25.81 55.06 28.44 C56.06 28.99 56.06 28.99 57.08 29.56 C59.8 31.18 61.72 32.43 63.15 35.3 C62.93 39.28 61.35 42.29 59.56 45.81 C59.22 46.51 58.89 47.2 58.54 47.91 C57.7 49.61 56.85 51.31 56 53 C55 51 55 51 55.56 48.94 C56.45 43.01 54.84 37.74 51.5 32.81 C47.87 28.32 43.18 25.46 38 23 C37.34 23 36.68 23 36 23 C35.58 23.76 35.17 24.52 34.74 25.3 C33.13 28.23 31.52 31.15 29.9 34.08 C29.18 35.4 28.45 36.72 27.73 38.04 C23.9 45 20.05 51.95 16.08 58.84 C15.48 59.87 14.89 60.91 14.27 61.97 C13.16 63.91 12.03 65.84 10.9 67.76 C7.72 73.27 5.26 77.63 6.69 84.12 C8.06 87.14 9.51 88.85 12 91 C8.63 89.74 5.67 88.29 2.62 86.38 C-4.08 82.27 -11.04 78.66 -18 75 C-17.01 74.01 -17.01 74.01 -16 73 C-14.05 73.13 -12.1 73.26 -10.17 73.52 C-6.56 72.66 -4.97 69.93 -3 67 C-0.72 63.25 1.4 59.41 3.5 55.56 C4.73 53.33 5.96 51.1 7.2 48.86 C7.82 47.73 8.45 46.59 9.09 45.42 C10.96 42.07 12.87 38.74 14.8 35.42 C15.4 34.38 16 33.34 16.62 32.27 C17.77 30.29 18.92 28.32 20.09 26.35 C20.6 25.46 21.12 24.56 21.65 23.64 C22.33 22.47 22.33 22.47 23.03 21.28 C24.13 18.69 24.19 16.79 24 14 C23.15 13.73 22.31 13.46 21.44 13.19 C18 12 18 12 14.62 10.38 C9.76 8.53 5.74 8.03 0.86 9.76 C-3.08 11.61 -6.14 13.66 -9 17 C-7.65 13.52 -6.16 10.16 -4.5 6.81 C-4.08 5.95 -3.65 5.09 -3.22 4.21 C-2 2 -2 2 0 0 Z " fill="#FAFCFC" transform="translate(381,1057)"/>
<path d="M0 0 C0.55 0.18 1.11 0.35 1.68 0.53 C4.2 1.34 6.73 2.14 9.25 2.94 C10.56 3.35 10.56 3.35 11.89 3.78 C13.16 4.18 13.16 4.18 14.45 4.59 C15.62 4.96 15.62 4.96 16.8 5.34 C18.86 5.96 20.91 6.5 23 7 C23 7.66 23 8.32 23 9 C21.68 9 20.36 9 19 9 C18.79 10.26 18.59 11.52 18.38 12.81 C17.12 19.22 15.06 25.37 13.03 31.57 C12.77 32.37 12.51 33.17 12.24 34 C12 34.72 11.76 35.44 11.52 36.19 C10.91 38.01 10.91 38.01 11 40 C16.13 41.32 22.17 42.09 27.2 40.15 C29.69 38.56 30.13 36.75 31 34 C32.19 37.57 31.72 38.6 30.57 42.11 C30.25 43.09 29.93 44.07 29.6 45.08 C29.09 46.62 29.09 46.62 28.56 48.19 C28.22 49.22 27.89 50.26 27.54 51.33 C26.7 53.89 25.85 56.44 25 59 C24.67 59 24.34 59 24 59 C23.82 58.41 23.64 57.82 23.45 57.21 C21.55 50.66 21.55 50.66 18 45 C15.07 43.71 12.1 42.8 9 42 C8.57 43.97 8.14 45.93 7.71 47.9 C7.16 50.31 6.56 52.7 5.94 55.1 C5.76 55.83 5.57 56.57 5.38 57.32 C5.01 58.79 4.63 60.25 4.23 61.71 C2.96 66.83 3.08 70.8 4 76 C4.74 76.27 5.49 76.54 6.25 76.81 C8.87 77.94 10.8 79.21 13 81 C8.99 82.58 6.05 81.37 2.05 80.13 C1.06 79.83 1.06 79.83 0.05 79.52 C-2.06 78.88 -4.15 78.22 -6.25 77.56 C-7.68 77.12 -9.1 76.69 -10.53 76.25 C-14.02 75.18 -17.51 74.09 -21 73 C-20 71 -20 71 -16.62 69.69 C-12.04 67.55 -10.93 65.53 -9.2 60.84 C-8.31 58.16 -7.47 55.47 -6.64 52.77 C-6.34 51.77 -6.03 50.78 -5.72 49.76 C-5.07 47.66 -4.43 45.56 -3.79 43.46 C-2.82 40.27 -1.83 37.08 -0.83 33.9 C-0.2 31.85 0.42 29.81 1.04 27.77 C1.34 26.82 1.64 25.88 1.94 24.9 C3.96 18.15 5.06 11.9 3.19 5 C2.1 2.67 2.1 2.67 -1 2 C-0.67 1.34 -0.34 0.68 0 0 Z " fill="#FAFCFC" transform="translate(810,63)"/>
<path d="M0 0 C0.64 0.5 1.28 0.99 1.94 1.5 C-0.78 2.41 -2.63 2.62 -5.44 2.75 C-9.12 3.12 -10 3.45 -13.06 5.88 C-15.73 9.38 -16.58 12.52 -16.54 16.93 C-14.99 25.24 -9.23 33.44 -5.01 40.63 C-2.52 45.55 -2.05 51.3 -3.71 56.55 C-6.69 63.1 -11.32 68.64 -18.06 71.44 C-24.72 73.48 -30.11 72.67 -36.43 69.97 C-42.55 66.55 -48.2 61.37 -52.06 55.5 C-52.06 54.84 -52.06 54.18 -52.06 53.5 C-53.71 53.5 -55.36 53.5 -57.06 53.5 C-56.42 49.49 -54.41 46.65 -52.19 43.31 C-51.49 42.25 -50.79 41.18 -50.07 40.08 C-48.06 37.5 -48.06 37.5 -45.06 36.5 C-45.23 37.39 -45.39 38.27 -45.56 39.19 C-46.52 46.1 -47 53.34 -45 60.06 C-41.89 63.97 -38.67 65.97 -33.85 66.95 C-29.37 67.29 -26.65 66.65 -23.12 63.81 C-19.26 59.97 -18 56.78 -17.75 51.37 C-17.79 46 -19.73 42.4 -22.44 37.88 C-26.69 30.55 -29.84 24.25 -29.06 15.5 C-27.09 9.6 -24.39 4.59 -19.05 1.24 C-12.73 -1.9 -6.51 -3.19 0 0 Z " fill="#FAFCFC" transform="translate(995.0625,142.5)"/>
<path d="M0 0 C6.6 -0.39 12 0.3 18.26 2.44 C21.72 3.15 24.55 2.64 28 2 C28.34 4.73 28.67 7.46 29 10.19 C29.1 10.96 29.19 11.73 29.29 12.52 C29.75 16.37 30.12 20.11 30 24 C29.5 22.52 29.5 22.52 29 21 C28.01 20.67 27.02 20.34 26 20 C24.57 17.89 24.57 17.89 23.12 15.25 C20.33 10.41 17.67 6.56 12.75 3.69 C6.39 2.1 0.1 2.58 -6 5 C-13.95 9.87 -17.5 19.32 -20 28 C-22 41.33 -20.67 54.11 -14 66 C-9.99 70.88 -4.66 73.42 1 76 C1 76.66 1 77.32 1 78 C3.64 78 6.28 78 9 78 C9 78.33 9 78.66 9 79 C-4.91 79.54 -14.11 77.95 -25 69 C-25.6 68.52 -26.2 68.04 -26.82 67.55 C-33.38 61.27 -35.11 49.48 -35.44 40.75 C-34.86 29.3 -31.2 17.6 -22.75 9.62 C-17.41 5.22 -11.03 1.6 -4 1 C-1.69 1.44 -1.69 1.44 0 2 C0 1.34 0 0.68 0 0 Z " fill="#FBFDFD" transform="translate(688,1132)"/>
<path d="M0 0 C3.81 0.61 7.63 1.24 11.44 1.88 C12.53 2.05 13.61 2.22 14.74 2.4 C15.77 2.58 16.81 2.75 17.87 2.93 C18.83 3.09 19.79 3.24 20.78 3.41 C21.51 3.6 22.24 3.8 23 4 C23.5 4.99 23.5 4.99 24 6 C23.34 6.33 22.68 6.66 22 7 C21.36 8.84 21.36 8.84 20.96 11.09 C20.8 11.93 20.63 12.77 20.45 13.64 C20.28 14.54 20.11 15.45 19.94 16.38 C19.67 17.74 19.67 17.74 19.41 19.13 C16.69 29.73 16.69 29.73 18 40 C17.52 40.41 17.05 40.83 16.56 41.25 C14.78 43.25 14.47 44.34 14.05 46.95 C13.86 48.1 13.86 48.1 13.67 49.27 C13.55 50.07 13.43 50.87 13.31 51.69 C13.18 52.47 13.05 53.24 12.92 54.04 C11.5 62.97 11.5 62.97 12.94 71.75 C16.01 75.1 19.8 76.42 24 78 C24 78.66 24 79.32 24 80 C26.48 79.5 26.48 79.5 29 79 C29 79.66 29 80.32 29 81 C19.84 80.28 10.9 78.62 1.88 76.94 C0.33 76.65 -1.21 76.37 -2.76 76.08 C-6.51 75.39 -10.25 74.7 -14 74 C-13.5 73.01 -13.5 73.01 -13 72 C-11.01 71.61 -9.02 71.23 -7.01 70.95 C-3.84 69.45 -3.36 67.19 -2 64 C-1.15 60.85 -0.55 57.67 0.04 54.46 C0.22 53.55 0.39 52.63 0.57 51.69 C0.93 49.76 1.29 47.82 1.64 45.89 C2.18 42.97 2.74 40.05 3.3 37.13 C7.25 19.83 7.25 19.83 4 3 C1.45 2.11 1.45 2.11 -1 2 C-0.67 1.34 -0.34 0.68 0 0 Z " fill="#FAFCFC" transform="translate(735,49)"/>
<path d="M0 0 C-1.98 0.33 -3.96 0.66 -6 1 C-5.76 1.8 -5.52 2.6 -5.27 3.43 C-4.37 6.41 -3.47 9.39 -2.58 12.37 C-2.01 14.29 -1.42 16.22 -0.84 18.14 C-0.48 19.35 -0.12 20.56 0.25 21.8 C0.75 23.47 0.75 23.47 1.27 25.18 C2 28 2 28 2 31 C3.65 31.66 5.3 32.32 7 33 C6.01 33.33 5.02 33.66 4 34 C4.93 37.38 5.87 40.75 6.81 44.12 C7.07 45.08 7.33 46.03 7.6 47.01 C10.01 56.36 10.01 56.36 16.25 63.31 C19.75 65.11 23.08 65.63 27 66 C28.34 66.31 29.67 66.64 31 67 C26.22 68.45 21.43 69.9 16.64 71.33 C15.01 71.82 13.38 72.31 11.75 72.8 C9.41 73.51 7.07 74.21 4.73 74.91 C3.64 75.25 3.64 75.25 2.52 75.59 C-2.66 77.11 -2.66 77.11 -6 76 C-5.53 75.55 -5.05 75.09 -4.56 74.62 C-1.36 71.3 -1.76 68.16 -1.81 63.75 C-2.11 59.43 -3.22 55.5 -4.48 51.37 C-4.74 50.5 -5 49.62 -5.26 48.72 C-5.8 46.89 -6.35 45.05 -6.91 43.22 C-7.75 40.45 -8.57 37.66 -9.38 34.88 C-9.92 33.08 -10.45 31.29 -10.98 29.5 C-11.23 28.68 -11.47 27.86 -11.72 27.01 C-13.19 22.17 -14.97 17.61 -17.13 13.03 C-18 11 -18 11 -19 7 C-21.97 7 -24.94 7 -28 7 C-26.68 6.67 -25.36 6.34 -24 6 C-24 5.34 -24 4.68 -24 4 C-5.5 -1.98 -5.5 -1.98 0 0 Z " fill="#FAFCFC" transform="translate(472,74)"/>
<path d="M0 0 C4.04 0.79 8.08 1.58 12.12 2.38 C13.27 2.6 14.41 2.82 15.59 3.05 C17.25 3.38 17.25 3.38 18.95 3.71 C19.96 3.91 20.98 4.11 22.02 4.31 C25.12 5.03 28.04 5.85 31 7 C31.5 7.99 31.5 7.99 32 9 C30.01 9.13 28.03 9.26 26.04 9.39 C23.18 10.24 22.58 11.48 21 14 C19.9 17.15 19.9 17.15 19.04 20.71 C18.79 21.69 18.79 21.69 18.54 22.7 C16.8 29.6 15.24 36.55 13.76 43.52 C13.31 45.63 12.85 47.75 12.38 49.86 C10.58 58.22 9.39 66.44 9 75 C9.96 75.19 9.96 75.19 10.94 75.38 C11.62 75.58 12.3 75.79 13 76 C13.5 76.99 13.5 76.99 14 78 C15.49 78.49 15.49 78.49 17 79 C16.67 79.66 16.34 80.32 16 81 C15.24 80.82 14.49 80.65 13.71 80.47 C10.26 79.66 6.82 78.86 3.38 78.06 C2.19 77.78 1 77.51 -0.23 77.22 C-1.38 76.95 -2.54 76.69 -3.73 76.41 C-4.78 76.16 -5.84 75.92 -6.93 75.66 C-9.94 75.01 -12.96 74.48 -16 74 C-13 72 -13 72 -9.5 71.44 C-5.98 70.43 -5.98 70.43 -5.08 68.23 C-4.86 67.5 -4.65 66.77 -4.42 66.02 C-4.18 65.2 -3.94 64.39 -3.69 63.55 C-2.6 59.5 -1.63 55.43 -0.74 51.32 C-0.54 50.43 -0.35 49.53 -0.15 48.61 C0.26 46.74 0.67 44.86 1.07 42.98 C1.68 40.14 2.32 37.3 2.95 34.46 C7 18.58 7 18.58 4 3 C1.96 2.11 1.96 2.11 0 2 C0 1.34 0 0.68 0 0 Z " fill="#FAFCFC" transform="translate(531,1121)"/>
<path d="M0 0 C5.22 4.36 10.05 8.96 14.81 13.81 C16.13 15.15 17.45 16.49 18.77 17.83 C19.34 18.42 19.92 19 20.51 19.6 C21.97 21.1 21.97 21.1 24 22 C23.67 22.66 23.34 23.32 23 24 C22.01 23.34 21.02 22.68 20 22 C15.25 21.36 12.28 21.39 8.31 24.19 C0.15 30.98 -7.33 38.86 -14.18 46.96 C-17.45 50.62 -21.02 53.98 -24.55 57.39 C-26.85 59.84 -28.53 61.98 -30 65 C-29.78 69.13 -29.14 72.44 -27 76 C-28.49 75.51 -28.49 75.51 -30 75 C-30 74.34 -30 73.68 -30 73 C-30.58 72.75 -31.15 72.5 -31.74 72.24 C-34.32 70.82 -36.04 69.18 -38.11 67.09 C-39.24 65.95 -39.24 65.95 -40.39 64.78 C-41.17 63.99 -41.95 63.19 -42.75 62.38 C-43.54 61.57 -44.34 60.77 -45.15 59.95 C-47.11 57.97 -49.06 55.99 -51 54 C-50.34 53.34 -49.68 52.68 -49 52 C-48.01 52.66 -47.02 53.32 -46 54 C-38.93 54.14 -35.83 50.56 -31 46 C-27.33 42.46 -23.7 38.89 -20.1 35.29 C-18.44 33.63 -16.78 31.98 -15.11 30.34 C-4.32 20.68 -4.32 20.68 1.5 8.25 C0.87 4.1 0.87 4.1 0 0 Z " fill="#FAFCFC" transform="translate(300,987)"/>
<path d="M0 0 C1.04 0 1.04 0 2.1 0 C3.15 0 3.15 0 4.23 0 C11.92 0.07 19.44 1.06 27.03 2.19 C27.03 2.52 27.03 2.85 27.03 3.19 C26.41 3.35 25.78 3.51 25.13 3.67 C20.14 4.94 20.14 4.94 16.53 8.31 C13.92 23.35 13.97 38.97 13.78 54.19 C13.76 55.1 13.74 56.02 13.72 56.96 C13.69 62.1 14 65.83 17.03 70.19 C19.24 71.93 19.24 71.93 21.72 73.06 C22.53 73.47 23.34 73.88 24.17 74.31 C24.78 74.6 25.4 74.89 26.03 75.19 C26.03 75.85 26.03 76.51 26.03 77.19 C27.27 76.91 27.27 76.91 28.53 76.63 C32.65 76.11 35.94 76.55 40.03 77.19 C40.03 77.52 40.03 77.85 40.03 78.19 C26.3 78.73 15.28 78.74 4.59 68.97 C1.88 65.87 0.78 63.19 0.8 59.08 C0.8 58.26 0.81 57.43 0.81 56.59 C0.82 55.69 0.83 54.8 0.85 53.88 C0.85 52.94 0.85 52 0.86 51.03 C0.9 45.04 1.12 39.07 1.4 33.09 C1.47 31.69 1.53 30.3 1.59 28.91 C1.71 26.17 1.86 23.44 2.03 20.71 C2.47 11.23 2.47 11.23 -1.97 3.19 C-4.05 1.72 -4.05 1.72 -5.97 1.19 C-4.29 -0.49 -2.24 0.02 0 0 Z " fill="#FAFCFC" transform="translate(649.966796875,43.810546875)"/>
<path d="M0 0 C5 4.43 9.17 9.66 10.45 16.37 C10.7 21.7 9.55 24.88 6 29 C1.66 32.82 -0.69 34.15 -6.44 34.19 C-7.41 34.2 -8.37 34.22 -9.37 34.23 C-12 34 -12 34 -15 32 C-15.5 32.99 -15.5 32.99 -16 34 C-15.7 34.58 -15.4 35.16 -15.09 35.76 C-12.95 40.17 -13.49 45.22 -14 50 C-15.62 53.38 -15.62 53.38 -18 56 C-18.47 56.53 -18.94 57.07 -19.43 57.62 C-23.55 62.07 -27.08 64.01 -33.19 64.5 C-39.91 64.33 -45.23 60.66 -49.96 56.11 C-54 51.58 -54 51.58 -54 49 C-48.27 50.87 -48.27 50.87 -45.62 52.19 C-41.87 53.35 -38.7 53.16 -35 52 C-29.82 49.11 -25.55 45.42 -23 40 C-21.49 33.85 -23.38 29.87 -26.56 24.56 C-27.55 23.05 -27.55 23.05 -28.57 21.5 C-29.28 20.26 -29.28 20.26 -30 19 C-29.67 18.34 -29.34 17.68 -29 17 C-28.28 17.6 -27.56 18.2 -26.81 18.81 C-25.88 19.53 -24.96 20.26 -24 21 C-22.89 21.87 -22.89 21.87 -21.75 22.75 C-17.76 24.56 -14.31 24.78 -10 24 C-4.39 21.53 -1.41 17.5 1 12 C1.51 7.75 0.81 4.85 -1 1 C-0.67 0.67 -0.34 0.34 0 0 Z " fill="#FAFCFC" transform="translate(273,956)"/>
<path d="M0 0 C5.81 1 9.01 5.5 12.53 9.93 C15.8 14.66 17.51 19.18 17 25 C15.27 30.95 11.95 34.45 7 38 C4.44 39.28 2.55 39.17 -0.31 39.19 C-1.73 39.21 -1.73 39.21 -3.18 39.23 C-6.14 38.99 -8.31 38.24 -11 37 C-10.67 37.99 -10.34 38.98 -10 40 C-8.99 48.31 -10.86 56.38 -12.58 64.47 C-14.77 74 -14.77 74 -12 83 C-12.99 82.67 -13.98 82.34 -15 82 C-15 81.34 -15 80.68 -15 80 C-15.57 79.73 -16.14 79.47 -16.73 79.2 C-19.11 77.94 -21.12 76.51 -23.25 74.88 C-23.96 74.34 -24.66 73.8 -25.39 73.24 C-25.92 72.83 -26.45 72.42 -27 72 C-26.73 70.84 -26.47 69.68 -26.2 68.48 C-20.23 48.33 -20.23 48.33 -24 29 C-24.66 28.67 -25.32 28.34 -26 28 C-26 27.34 -26 26.68 -26 26 C-23.25 27.05 -20.75 28.15 -18.19 29.62 C-14.32 31.29 -11.11 31.81 -7 31 C-1.98 28.95 1.98 25.95 4.37 21.01 C5.95 15.96 5.96 11.25 3.87 6.36 C2.66 4.17 1.4 2.07 0 0 Z " fill="#FAFCFC" transform="translate(350,1033)"/>
<path d="M0 0 C1.98 0.18 1.98 0.18 4 1 C5.73 3.29 7.22 5.49 8.69 7.94 C9.09 8.58 9.49 9.23 9.91 9.9 C13.43 15.58 15.12 19.28 14 26 C11.23 31.55 6.58 36.26 1 39 C-3.12 40.31 -6.39 40.18 -10.56 38.94 C-15.88 35.94 -20.57 32.76 -23 27 C-23.63 23.91 -23.58 21.96 -21.93 19.22 C-17.14 13.33 -11.01 8.89 -5.01 4.32 C-2.07 2.16 -2.07 2.16 0 0 Z " fill="#0D359E" transform="translate(237,970)"/>
<path d="M0 0 C0.66 0.33 1.32 0.66 2 1 C0.02 1.99 0.02 1.99 -2 3 C1.13 9.51 4.52 15.69 8.44 21.75 C9.49 23.39 10.55 25.04 11.6 26.68 C12.15 27.54 12.7 28.39 13.27 29.28 C15.09 32.15 16.87 35.04 18.65 37.95 C19.26 38.93 19.87 39.92 20.5 40.94 C21.68 42.85 22.85 44.77 24.02 46.7 C28.67 54.17 33.24 58.65 42 61 C37.7 64.6 33.13 67.64 28.44 70.69 C27.68 71.19 26.93 71.68 26.15 72.2 C25.05 72.91 25.05 72.91 23.93 73.64 C23.27 74.07 22.61 74.5 21.94 74.94 C19.96 76.02 18.2 76.56 16 77 C16.66 76.32 17.32 75.64 18 74.94 C20.52 71.23 20.39 69.43 20 65 C18.72 61.83 18.72 61.83 16.75 58.75 C16.4 58.16 16.04 57.57 15.68 56.96 C14.47 54.96 13.24 52.98 12 51 C11.55 50.28 11.1 49.55 10.64 48.81 C7.65 44.03 4.64 39.27 1.6 34.52 C-1.13 30.23 -3.85 25.93 -6.56 21.62 C-7.06 20.83 -7.56 20.04 -8.08 19.23 C-10.43 15.51 -12.76 11.79 -15 8 C-13.06 6.85 -11.13 5.71 -9.19 4.56 C-8.11 3.92 -7.03 3.29 -5.92 2.63 C-3 1 -3 1 0 0 Z " fill="#FAFCFC" transform="translate(320,139)"/>
<path d="M0 0 C1.21 0.04 1.21 0.04 2.45 0.08 C3.06 0.12 3.68 0.15 4.31 0.19 C6.98 4.07 8.26 6.19 8.5 10.94 C6.83 19.56 0.43 26.33 -5.75 32.13 C-9.1 35.69 -11.37 39.91 -13.69 44.19 C-17.68 41.77 -20.36 39.56 -23.27 35.84 C-25.53 33.21 -28.18 31.04 -30.82 28.8 C-34.77 25.39 -36.4 23.57 -36.85 18.29 C-36.99 15.07 -36.93 12.74 -35.62 9.75 C-32.74 7.43 -30.33 7.32 -26.69 7.19 C-23.43 8.15 -22.7 9.17 -20.91 12.12 C-20.34 13.28 -19.77 14.43 -19.19 15.62 C-16.45 21.3 -16.45 21.3 -11.69 25.19 C-9.14 25.77 -9.14 25.77 -6.69 25.19 C-4.57 23.73 -4.57 23.73 -3.69 21.19 C-4.4 17.47 -4.4 17.47 -5.69 14.19 C-7.34 14.52 -8.99 14.85 -10.69 15.19 C-11.51 12.82 -11.81 11.57 -11.02 9.15 C-10.66 8.48 -10.3 7.81 -9.94 7.12 C-9.59 6.45 -9.25 5.78 -8.89 5.09 C-6.35 1.07 -4.85 -0.21 0 0 Z " fill="#0D359E" transform="translate(712.6875,737.8125)"/>
<path d="M0 0 C2.02 1.71 3.82 3.48 5.61 5.42 C6.15 5.97 6.7 6.52 7.25 7.08 C15.2 15.59 17.94 24.94 17.83 36.36 C17.52 40.76 16.36 44.4 14.61 48.42 C14.36 49.08 14.1 49.73 13.84 50.4 C10.49 58.11 4.21 65.7 -3.39 69.42 C-4.38 68.93 -4.38 68.93 -5.39 68.42 C-4.76 67.96 -4.13 67.5 -3.49 67.03 C-2.67 66.42 -1.85 65.8 -1.01 65.17 C-0.2 64.57 0.61 63.97 1.45 63.34 C5.52 59.73 6.23 55.68 6.61 50.42 C7.61 32.28 0.91 19.07 -10.96 5.64 C-15.86 0.8 -21.68 -0.71 -28.39 -1.58 C-31.53 -1.53 -34.28 -1.15 -37.39 -0.58 C-36.73 -1.24 -36.07 -1.9 -35.39 -2.58 C-34.4 -2.58 -33.41 -2.58 -32.39 -2.58 C-32.39 -3.24 -32.39 -3.9 -32.39 -4.58 C-21.5 -7 -9.52 -6.3 0 0 Z " fill="#FBFDFD" transform="translate(917.38671875,1079.578125)"/>
<path d="M0 0 C-1.2 0.45 -2.39 0.91 -3.62 1.38 C-10.02 4.61 -12.6 10.26 -15.04 16.76 C-18.68 29.21 -18.7 44.41 -12.91 56.22 C-11.98 57.84 -10.99 59.42 -10 61 C-10 61.66 -10 62.32 -10 63 C-9.01 63 -8.02 63 -7 63 C-7 63.66 -7 64.32 -7 65 C-5.68 65.33 -4.36 65.66 -3 66 C-3 66.66 -3 67.32 -3 68 C-0.69 69.32 1.62 70.64 4 72 C4 72.66 4 73.32 4 74 C5.32 74.33 6.64 74.66 8 75 C1.74 74.63 -3.35 73.93 -9 71 C-9.78 70.6 -10.56 70.2 -11.37 69.79 C-19.78 65.16 -26.01 59.47 -29.5 50.38 C-33.12 37.7 -31.51 26.21 -25.25 14.81 C-20.84 9.3 -16.77 4.39 -10 2 C-8.8 1.44 -7.61 0.89 -6.38 0.31 C-3 -1 -3 -1 0 0 Z " fill="#FBFDFD" transform="translate(582,50)"/>
<path d="M0 0 C2.79 1.4 3.64 3.22 5.14 5.92 C5.65 6.81 6.16 7.71 6.69 8.63 C8.78 12.5 9.53 14.5 8.96 18.98 C6.16 24.56 2.75 29.37 -3.04 31.98 C-8.45 33.14 -12.21 32.25 -16.86 29.29 C-20.13 26.87 -22.87 24.48 -25.04 20.98 C-25.04 19.99 -25.04 19 -25.04 17.98 C-22.94 16.1 -20.86 14.41 -18.61 12.73 C-17.32 11.75 -16.03 10.77 -14.74 9.79 C-14.11 9.32 -13.48 8.84 -12.83 8.35 C-9.77 6.01 -6.84 3.51 -3.91 1.03 C-2.04 -0.02 -2.04 -0.02 0 0 Z " fill="#0D359E" transform="translate(266.04296875,949.01953125)"/>
<path d="M0 0 C5.13 0.57 7.7 4.43 10.81 8.19 C12.65 12.53 12.84 16.37 12 21 C9.22 27.33 5.41 31.46 -1 34 C-8.64 35.27 -13.6 31.95 -20 28 C-19.39 24.6 -18.15 22.58 -16.02 19.88 C-15.41 19.11 -14.8 18.34 -14.18 17.54 C-13.54 16.75 -12.91 15.95 -12.25 15.12 C-11.63 14.33 -11.01 13.54 -10.37 12.73 C-6.98 8.43 -3.53 4.19 0 0 Z " fill="#0D359E" transform="translate(344,1031)"/>
<path d="M0 0 C3.78 3.06 7.85 6.88 8.62 11.87 C9.05 20.06 6.19 26.32 0.89 32.54 C-6.52 39.31 -14.23 40.3 -23.94 40.02 C-24.85 39.97 -25.75 39.92 -26.69 39.88 C-26.69 38.88 -26.69 37.89 -26.69 36.88 C-26.08 36.8 -25.48 36.73 -24.85 36.65 C-17.91 35.56 -12 33.62 -6.69 28.88 C-2.27 22.61 0.39 16.54 -0.69 8.88 C-1.57 5.99 -1.57 5.99 -2.69 3.88 C-8.79 3.65 -13.9 3.86 -19.69 5.88 C-14.65 -0.99 -8.34 -3.49 0 0 Z " fill="#FAFCFC" transform="translate(864.6875,792.125)"/>
<path d="M0 0 C-2.33 1.21 -4.5 2.17 -7 3 C-8.59 6.19 -8.1 9.63 -8.06 13.12 C-8.06 13.88 -8.05 14.63 -8.05 15.41 C-8.04 17.27 -8.02 19.14 -8 21 C-9.13 21.56 -10.27 22.11 -11.44 22.69 C-13.76 23.83 -16 25 -18.22 26.34 C-23.61 29.61 -27.69 30.7 -34 31 C-33.01 30.67 -32.02 30.34 -31 30 C-31 29.34 -31 28.68 -31 28 C-29.61 27.1 -29.61 27.1 -28.19 26.19 C-24.83 23.88 -23.5 22.74 -22 19 C-21.41 14.55 -21.77 10.82 -23 6.5 C-25.26 3.68 -25.77 3.57 -29.19 3.12 C-31.07 3.06 -31.07 3.06 -33 3 C-30.23 1.47 -27.95 0.68 -24.8 0.33 C-24.01 0.24 -23.22 0.15 -22.4 0.06 C-21.57 -0.02 -20.73 -0.1 -19.88 -0.19 C-19.03 -0.27 -18.18 -0.36 -17.3 -0.45 C-11.37 -1.01 -5.91 -0.97 0 0 Z " fill="#FAFCFC" transform="translate(731,1179)"/>
<path d="M0 0 C2.45 1.86 2.98 2.89 3.62 5.96 C3.7 7.09 3.79 8.21 3.88 9.38 C3.98 10.5 4.08 11.62 4.18 12.77 C3.98 16.43 3.18 18.1 1 21 C-0.63 22.38 -2.29 23.72 -4 25 C-5.01 25.99 -6.01 26.99 -7 28 C-9.43 22.32 -10.7 18.19 -10 12 C-7.49 7.18 -3.89 3.72 0 0 Z " fill="#FBFDFD" transform="translate(713,250)"/>
<path d="M0 0 C3.06 0.14 6.13 0.29 9.19 0.44 C10.05 0.48 10.92 0.52 11.81 0.56 C15.96 0.76 19.95 1 24 2 C24 2.33 24 2.66 24 3 C23.37 3.16 22.75 3.32 22.1 3.48 C17.14 4.75 17.14 4.75 13.5 8.06 C12.26 15.32 11.89 22.63 11.57 29.97 C11.52 31.19 11.52 31.19 11.46 32.44 C11.31 35.84 11.16 39.23 11.03 42.64 C10.18 64.23 10.18 64.23 5.66 69.59 C2.7 72.31 -0.01 73.65 -4 74 C-3.28 73.44 -2.56 72.89 -1.81 72.31 C3.77 68.02 3.77 68.02 6.81 61.94 C6.96 59.63 7 57.31 7 55 C7.66 55 8.32 55 9 55 C8.93 54.32 8.86 53.64 8.78 52.95 C8.15 46.6 7.88 40.37 8 34 C8.66 34 9.32 34 10 34 C9.94 33.38 9.88 32.76 9.82 32.12 C9.16 25.21 8.72 18.31 8.38 11.38 C8.02 8.16 7.56 5.83 6 3 C2.95 2.1 2.95 2.1 0 2 C0 1.34 0 0.68 0 0 Z " fill="#F9FBFC" transform="translate(698,46)"/>
<path d="M0 0 C-0.06 0.78 -0.11 1.56 -0.17 2.36 C-0.71 10 -1.23 17.63 -1.75 25.27 C-1.9 27.57 -2.06 29.87 -2.23 32.17 C-2.41 34.8 -2.58 37.43 -2.75 40.06 C-2.81 40.82 -2.86 41.58 -2.92 42.36 C-3.14 46.12 -3.22 48.86 -1 52 C1.48 54.15 4.06 55.56 7 57 C3.77 56.86 0.54 56.71 -2.69 56.56 C-3.6 56.52 -4.51 56.48 -5.45 56.44 C-6.78 56.38 -6.78 56.38 -8.14 56.32 C-8.95 56.28 -9.76 56.24 -10.6 56.21 C-13.12 55.99 -15.53 55.54 -18 55 C-16 53 -16 53 -12.5 51.69 C-8.96 50.36 -8.96 50.36 -7.62 47.81 C-6.82 44.21 -6.37 40.67 -6 37 C-5.34 37 -4.68 37 -4 37 C-4.33 32.71 -4.66 28.42 -5 24 C-4.34 24 -3.68 24 -3 24 C-3.33 20.37 -3.66 16.74 -4 13 C-3.34 13 -2.68 13 -2 13 C-2.25 11.14 -2.25 11.14 -2.5 9.25 C-2.88 6.42 -3 3.88 -3 1 C-1 0 -1 0 0 0 Z " fill="#F9FBFC" transform="translate(580,1150)"/>
<path d="M0 0 C5.41 1.54 9.98 4.02 14.81 6.81 C15.98 7.45 15.98 7.45 17.16 8.1 C22.61 11.25 22.61 11.25 24.23 14.34 C23.89 18.27 22.34 21.32 20.56 24.81 C20.22 25.51 19.89 26.2 19.54 26.91 C18.7 28.61 17.85 30.31 17 32 C16 30 16 30 16.56 27.94 C17.45 21.98 15.83 16.74 12.44 11.81 C9.42 8.06 5.88 5.66 1.76 3.23 C1.18 2.82 0.6 2.42 0 2 C0 1.34 0 0.68 0 0 Z " fill="#F8FBFC" transform="translate(420,1078)"/>
<path d="M0 0 C4.25 1.49 6.95 2.9 9 7 C10.32 7.69 11.66 8.35 13 9 C13.8 9.66 14.61 10.32 15.44 11 C20.2 14.31 26.39 14.37 32 15 C28.22 18.22 25.72 18.63 20.86 18.49 C13.4 17.22 6.64 12.91 1 8 C-0.35 5.29 -0.07 2.99 0 0 Z " fill="#F8FBFC" transform="translate(751,568)"/>
<path d="M0 0 C5.94 -0.34 10.55 0.55 16.19 2.44 C19.68 3.14 22.53 2.65 26 2 C26.34 4.73 26.67 7.46 27 10.19 C27.1 10.96 27.19 11.73 27.29 12.52 C27.75 16.37 28.12 20.11 28 24 C27.67 23.01 27.34 22.02 27 21 C26.01 20.67 25.02 20.34 24 20 C22.57 17.89 22.57 17.89 21.12 15.25 C17.76 9.43 14.65 5.01 8 3 C5.34 2.29 2.68 1.64 0 1 C0 0.67 0 0.34 0 0 Z " fill="#F9FCFC" transform="translate(690,1132)"/>
<path d="M0 0 C1.28 2.56 0.81 3.22 -0.07 5.88 C-0.6 7.44 -1.14 9 -1.69 10.56 C-2.07 11.75 -2.07 11.75 -2.47 12.97 C-2.73 13.72 -2.99 14.48 -3.26 15.25 C-3.5 15.95 -3.74 16.64 -3.98 17.36 C-5 19 -5 19 -6.81 19.81 C-9.44 20.04 -11.24 19.58 -13.77 18.79 C-14.66 18.51 -15.54 18.24 -16.46 17.96 C-17.38 17.66 -18.3 17.37 -19.25 17.06 C-20.19 16.77 -21.12 16.48 -22.09 16.18 C-24.39 15.46 -26.7 14.74 -29 14 C-28.67 13.34 -28.34 12.68 -28 12 C-26.51 12.1 -26.51 12.1 -25 12.21 C-16.23 12.8 -16.23 12.8 -8.38 9.38 C-6.57 7.77 -6.57 7.77 -5 6 C-4.48 5.43 -3.95 4.86 -3.41 4.27 C-2.23 2.89 -1.1 1.45 0 0 Z " fill="#F8FAFB" transform="translate(854,133)"/>
<path d="M0 0 C1.78 3.22 2.74 6.38 3.62 9.94 C3.89 10.96 4.15 11.98 4.41 13.03 C4.96 15.78 5.11 18.2 5 21 C0.62 22.7 -3.78 24.31 -8.25 25.75 C-9.06 26.01 -9.87 26.28 -10.7 26.55 C-13.18 27.04 -14.63 26.8 -17 26 C-15.97 25.65 -14.94 25.3 -13.88 24.94 C-8.26 22.54 -4.28 17.6 -2 12 C-1.58 9.22 -1.58 9.22 -1.44 6.31 C-1.1 1.1 -1.1 1.1 0 0 Z " fill="#FBFDFD" transform="translate(520,113)"/>
<path d="M0 0 C4.91 0.24 8.96 2.94 13.12 5.31 C13.84 5.7 14.56 6.09 15.29 6.5 C18.97 8.57 21.79 10.26 24 14 C20.74 12.97 17.71 11.86 14.62 10.38 C9.76 8.53 5.74 8.03 0.86 9.76 C-3.08 11.61 -6.14 13.66 -9 17 C-7.65 13.52 -6.16 10.16 -4.5 6.81 C-4.08 5.95 -3.65 5.09 -3.22 4.21 C-2 2 -2 2 0 0 Z " fill="#FBFDFD" transform="translate(381,1057)"/>
<path d="M0 0 C0.66 0.33 1.32 0.66 2 1 C1.25 1.52 0.5 2.04 -0.27 2.57 C-1.25 3.27 -2.24 3.97 -3.25 4.69 C-4.22 5.37 -5.2 6.06 -6.2 6.76 C-9.93 9.74 -12.48 12.45 -14 17 C-14.33 22.09 -14.03 27 -13 32 C-17.84 27.85 -20.72 22.96 -23 17 C-23 15.68 -23 14.36 -23 13 C-21.36 11.55 -21.36 11.55 -19.19 10.31 C-18.48 9.9 -17.77 9.48 -17.04 9.05 C-15 8 -15 8 -12 7 C-8.36 5.31 -5.13 3.15 -1.8 0.93 C-1.21 0.62 -0.61 0.31 0 0 Z " fill="#FBFDFD" transform="translate(304,149)"/>
<path d="M0 0 C0.66 0.33 1.32 0.66 2 1 C1.36 3.79 0.71 6.58 0.06 9.38 C-0.12 10.17 -0.3 10.96 -0.49 11.78 C-0.67 12.54 -0.84 13.3 -1.03 14.09 C-1.19 14.79 -1.35 15.49 -1.52 16.21 C-2 18 -2 18 -3 20 C-5.21 19.69 -7.42 19.38 -9.62 19.06 C-10.85 18.89 -12.08 18.71 -13.35 18.54 C-16.58 18.06 -19.79 17.55 -23 17 C-20.71 14.71 -19.85 14.64 -16.75 14.12 C-11.81 13.09 -7.77 11.61 -4.82 7.25 C-3.84 5.53 -2.91 3.76 -2 2 C-1.34 1.34 -0.68 0.68 0 0 Z " fill="#F8FAFC" transform="translate(787,114)"/>
<path d="M0 0 C1.1 3.31 0.84 3.8 0 7 C-0.83 17.04 -0.83 17.04 3 26 C5.05 27.4 5.05 27.4 7 28 C7 28.66 7 29.32 7 30 C2.75 29.52 0.98 27.17 -1.75 24.06 C-2.55 23.17 -3.35 22.27 -4.17 21.35 C-6 19 -6 19 -6 17 C-7.65 17 -9.3 17 -11 17 C-10.37 12.97 -8.31 10.15 -6.06 6.81 C-5.35 5.75 -4.64 4.68 -3.91 3.58 C-2 1 -2 1 0 0 Z " fill="#F8FBFC" transform="translate(949,179)"/>
<path d="M0 0 C1.88 2.24 3.54 4.42 5.19 6.81 C5.65 7.46 6.11 8.1 6.59 8.76 C10 13.6 10 13.6 10 17 C9.53 16.58 9.06 16.16 8.57 15.72 C7.95 15.17 7.33 14.63 6.69 14.06 C6.07 13.52 5.46 12.97 4.82 12.41 C0.53 9.09 -4.84 9.42 -10 10 C-12.52 10.91 -14.82 11.97 -17.19 13.22 C-18.08 13.61 -18.08 13.61 -19 14 C-19.66 13.67 -20.32 13.34 -21 13 C-18.69 11.68 -16.38 10.36 -14 9 C-14 8.34 -14 7.68 -14 7 C-11.7 5.27 -11.7 5.27 -8.69 3.38 C-7.7 2.74 -6.72 2.11 -5.7 1.46 C-3 0 -3 0 0 0 Z " fill="#FAFCFC" transform="translate(343,125)"/>
<path d="M0 0 C2.48 4.65 3.75 9.58 5.19 14.62 C5.47 15.59 5.76 16.56 6.05 17.55 C6.32 18.48 6.58 19.4 6.86 20.35 C7.1 21.2 7.34 22.04 7.59 22.91 C8 25 8 25 7 27 C6.92 26.38 6.83 25.76 6.75 25.12 C6.21 22.83 6.21 22.83 4.06 21.94 C3.04 21.47 3.04 21.47 2 21 C1.34 20.01 0.68 19.02 0 18 C-3.69 17.1 -7.21 16.89 -11 17 C-10.01 16.67 -9.02 16.34 -8 16 C-8 15.34 -8 14.68 -8 14 C-7.2 13.78 -6.4 13.57 -5.58 13.35 C-2.76 12.25 -2.76 12.25 -2.11 9.43 C-1.93 7.95 -1.93 7.95 -1.75 6.44 C-1.05 1.05 -1.05 1.05 0 0 Z " fill="#FAFCFC" transform="translate(490,90)"/>
<path d="M0 0 C1.1 3.36 0.88 5.75 0.22 9.2 C0.04 10.18 -0.14 11.16 -0.33 12.17 C-0.53 13.19 -0.73 14.2 -0.94 15.25 C-1.13 16.28 -1.33 17.31 -1.53 18.38 C-2.01 20.92 -2.5 23.46 -3 26 C-3.33 26 -3.66 26 -4 26 C-4.15 25.13 -4.15 25.13 -4.3 24.24 C-5.29 19.06 -6.37 15.02 -10 11 C-13.61 9.56 -13.61 9.56 -17 9 C-16.67 8.34 -16.34 7.68 -16 7 C-13.89 6.73 -13.89 6.73 -11.25 6.62 C-6.68 6.27 -4.23 5.44 -1 2 C-0.67 1.34 -0.34 0.68 0 0 Z " fill="#FBFDFD" transform="translate(770,81)"/>
<path d="M0 0 C1.32 0.66 2.64 1.32 4 2 C3.59 7.39 1.46 10.62 -1.88 14.69 C-2.32 15.26 -2.77 15.82 -3.23 16.41 C-5.36 19.08 -7.51 21.66 -10 24 C-9.43 18.66 -8.15 14.15 -6.12 9.19 C-5.74 8.19 -5.74 8.19 -5.35 7.17 C-3.94 3.65 -3.23 2.15 0 0 Z " fill="#FBFDFD" transform="translate(962,125)"/>
<path d="M0 0 C9.04 1.88 9.04 1.88 12.38 3.7 C13.65 7.49 13.06 9.96 12.45 13.89 C12.25 15.16 12.06 16.44 11.86 17.75 C11.7 18.72 11.54 19.7 11.38 20.7 C11.05 20.7 10.72 20.7 10.38 20.7 C10.18 19.73 9.97 18.76 9.76 17.77 C8.28 12.78 6.03 8.44 2.38 4.7 C-0.87 3.1 -4.06 2.33 -7.62 1.7 C-8.54 1.52 -9.47 1.33 -10.43 1.14 C-11.51 0.92 -11.51 0.92 -12.62 0.7 C-8.22 -2.23 -5.04 -0.88 0 0 Z " fill="#FBFDFD" transform="translate(777.6171875,56.296875)"/>
<path d="M0 0 C5.28 0.33 10.56 0.66 16 1 C16 1.66 16 2.32 16 3 C18.31 3 20.62 3 23 3 C23 3.33 23 3.66 23 4 C21.91 4.1 20.81 4.21 19.69 4.31 C15.51 5.01 15.51 5.01 13 8 C12.31 10.59 11.76 13.06 11.31 15.69 C11.18 16.39 11.05 17.09 10.92 17.81 C10.6 19.54 10.3 21.27 10 23 C9.67 23 9.34 23 9 23 C8.88 21.98 8.76 20.95 8.63 19.89 C8.46 18.53 8.29 17.17 8.12 15.81 C8.05 15.14 7.97 14.47 7.89 13.77 C7.4 9.92 6.87 6.43 5 3 C1.95 2.1 1.95 2.1 -1 2 C-0.67 1.34 -0.34 0.68 0 0 Z " fill="#FBFDFD" transform="translate(623,1135)"/>
<path d="M0 0 C19.01 5.01 19.01 5.01 22 8 C21.79 10.43 21.79 10.43 21.19 13.31 C21 14.26 20.8 15.2 20.61 16.18 C20.41 17.11 20.21 18.04 20 19 C19.66 20.67 19.33 22.33 19 24 C18.67 24 18.34 24 18 24 C17.79 22.89 17.59 21.77 17.38 20.62 C15.93 15.13 13.91 10.19 10 6 C6.11 4.07 2.23 2.92 -2 2 C-1.34 1.34 -0.68 0.68 0 0 Z " fill="#F9FCFC" transform="translate(841,73)"/>
<path d="M0 0 C2.98 2.16 4.97 3.96 7 7.06 C9.1 10.15 10.84 11.16 14 13 C14 16.85 12.69 18.32 10.56 21.5 C8.64 24.38 7.1 26.71 6 30 C5.34 29.67 4.68 29.34 4 29 C4.16 28.07 4.33 27.14 4.5 26.19 C5.43 19.61 6.18 12.97 3 7 C3 6.01 3 5.02 3 4 C1.68 3.34 0.36 2.68 -1 2 C-0.67 1.34 -0.34 0.68 0 0 Z " fill="#F6F9FB" transform="translate(998,144)"/>
<path d="M0 0 C1.19 3.57 0.72 4.6 -0.43 8.11 C-0.75 9.09 -1.07 10.07 -1.4 11.08 C-1.74 12.11 -2.08 13.13 -2.44 14.19 C-2.78 15.22 -3.11 16.26 -3.46 17.33 C-4.3 19.89 -5.15 22.44 -6 25 C-6.33 25 -6.66 25 -7 25 C-7.18 24.41 -7.36 23.82 -7.55 23.21 C-9.46 17.2 -11.42 12.45 -16 8 C-15.32 7.95 -14.65 7.9 -13.95 7.85 C-13.06 7.78 -12.17 7.7 -11.25 7.62 C-10.37 7.56 -9.49 7.49 -8.58 7.41 C-5.96 6.99 -4.22 6.43 -2 5 C-0.72 2.46 -0.72 2.46 0 0 Z " fill="#FBFDFD" transform="translate(841,97)"/>
<path d="M0 0 C2.5 1.97 3.1 3.87 4.13 6.86 C4.48 7.83 4.82 8.8 5.18 9.8 C5.82 12.43 5.82 12.43 4.82 15.43 C4.82 14.77 4.82 14.11 4.82 13.43 C3.83 13.1 2.84 12.77 1.82 12.43 C-0.18 9.93 -0.18 9.93 -2.18 7.43 C-5.74 6.24 -8.62 6.33 -12.37 6.36 C-13.64 6.37 -14.92 6.38 -16.23 6.39 C-17.2 6.4 -18.18 6.41 -19.18 6.43 C-16.18 4.43 -16.18 4.43 -12.18 4.43 C-12.18 3.77 -12.18 3.11 -12.18 2.43 C-10.61 1.87 -9.02 1.33 -7.43 0.8 C-6.55 0.5 -5.67 0.2 -4.76 -0.11 C-2.18 -0.57 -2.18 -0.57 0 0 Z " fill="#FAFCFC" transform="translate(498.18359375,64.57421875)"/>
<path d="M0 0 C4.6 1.49 7.5 3.75 11 7 C11 7.66 11 8.32 11 9 C11.99 9.33 12.98 9.66 14 10 C13.01 10.5 13.01 10.5 12 11 C11.28 10.69 10.56 10.38 9.81 10.06 C5.21 8.33 1.51 8.41 -3.06 10.19 C-6.35 12.22 -9.1 14.45 -12 17 C-10.46 13.54 -8.39 10.93 -6 8 C-3.98 5.35 -1.99 2.67 0 0 Z " fill="#F8FBFC" transform="translate(1029,959)"/>
<path d="M0 0 C5.67 0.38 8.89 0.78 13 5 C13.64 5.99 14.28 6.98 14.94 8 C17.34 11.5 19.39 12.87 23 15 C22.01 15.33 21.02 15.66 20 16 C17.97 14.71 15.98 13.37 14 12 C12.87 11.57 11.73 11.13 10.56 10.69 C6.16 8.6 3.03 5.82 0 2 C0 1.34 0 0.68 0 0 Z " fill="#F7F9FB" transform="translate(539,306)"/>
<path d="M0 0 C0.33 0.66 0.66 1.32 1 2 C0.07 3.44 -0.87 4.88 -1.81 6.31 C-2.33 7.11 -2.86 7.91 -3.39 8.74 C-4.83 10.75 -6.08 12.44 -8 14 C-8.99 14 -9.98 14 -11 14 C-11.27 14.6 -11.54 15.2 -11.81 15.81 C-12.98 17.97 -14.19 19.36 -16 21 C-15.43 18.13 -15.14 17.14 -13 15 C-12.66 13.14 -12.66 13.14 -12.31 11.25 C-11.32 6.88 -9.27 4.89 -5.85 2.13 C-3.9 0.94 -2.23 0.43 0 0 Z " fill="#F8FBFC" transform="translate(762,281)"/>
<path d="M0 0 C1 3 1 3 0.38 6.38 C-0.05 10.52 0.5 11.76 3 15 C3.66 15.66 4.32 16.32 5 17 C1.21 16.25 -2.07 14.69 -5.56 13.06 C-6.7 12.54 -7.83 12.01 -9 11.47 C-12 10 -12 10 -15 8 C-12 7 -12 7 -9.06 6.75 C-5.18 5.8 -4.25 4.21 -2 1 C-1.34 0.67 -0.68 0.34 0 0 Z " fill="#F5F8FA" transform="translate(867,146)"/>
<path d="M0 0 C-0.26 3.93 -0.53 7.86 -0.8 11.79 C-0.93 13.77 -1.07 15.75 -1.2 17.72 C-1.46 21.48 -1.73 25.24 -2 29 C-2.07 30.08 -2.14 31.15 -2.22 32.26 C-2.29 33.23 -2.37 34.2 -2.44 35.2 C-2.5 36.04 -2.56 36.87 -2.62 37.74 C-3.02 40.15 -3.8 41.88 -5 44 C-5.33 44 -5.66 44 -6 44 C-6 41.69 -6 39.38 -6 37 C-5.34 37 -4.68 37 -4 37 C-4.33 32.71 -4.66 28.42 -5 24 C-4.34 24 -3.68 24 -3 24 C-3.33 20.37 -3.66 16.74 -4 13 C-3.34 13 -2.68 13 -2 13 C-2.16 11.76 -2.33 10.53 -2.5 9.25 C-2.88 6.42 -3 3.88 -3 1 C-1 0 -1 0 0 0 Z " fill="#F4F8FA" transform="translate(580,1150)"/>
<path d="M0 0 C-0.08 4.15 -0.19 8.29 -0.31 12.44 C-0.35 14.18 -0.35 14.18 -0.38 15.97 C-0.85 31.22 -0.85 31.22 -5.34 36.61 C-8.32 39.31 -11.02 40.65 -15 41 C-14.28 40.44 -13.56 39.89 -12.81 39.31 C-7.23 35.02 -7.23 35.02 -4.19 28.94 C-4.04 26.63 -4 24.31 -4 22 C-3.34 22 -2.68 22 -2 22 C-2.07 21.32 -2.14 20.64 -2.22 19.95 C-2.85 13.6 -3.12 7.37 -3 1 C-1 0 -1 0 0 0 Z " fill="#F5F8FA" transform="translate(709,79)"/>
<path d="M0 0 C1.98 0 3.96 0 6 0 C5.26 0.52 4.51 1.03 3.75 1.56 C-2.52 7.12 -4.12 14.1 -6 22 C-6.99 21.34 -7.98 20.68 -9 20 C-8.73 13.31 -8.05 8.44 -4 3 C-1.75 2.06 -1.75 2.06 0 2 C0 1.34 0 0.68 0 0 Z " fill="#FBFDFD" transform="translate(657,505)"/>
<path d="M0 0 C0.46 0.35 0.92 0.7 1.4 1.06 C6.25 4.44 10 5.6 15.9 5.86 C18 6 18 6 20 7 C20 7.66 20 8.32 20 9 C16.53 10.73 12.79 10.47 9 10 C5.58 8.16 2.41 6.08 0 3 C0 2.01 0 1.02 0 0 Z " fill="#F7FAFB" transform="translate(765,765)"/>
<path d="M0 0 C-0.24 3.92 -0.49 7.83 -0.74 11.74 C-0.87 13.73 -0.99 15.71 -1.11 17.7 C-1.2 18.95 -1.28 20.2 -1.37 21.48 C-1.44 22.64 -1.51 23.79 -1.59 24.98 C-1.97 27.8 -2.54 29.59 -4 32 C-4.83 29.11 -5 27.11 -5 24 C-4.34 24 -3.68 24 -3 24 C-3.16 23.32 -3.33 22.64 -3.5 21.94 C-4.07 18.58 -4.07 15.4 -4 12 C-3.34 12 -2.68 12 -2 12 C-2.16 11.48 -2.33 10.97 -2.5 10.44 C-3.15 7.27 -3.06 4.23 -3 1 C-1 0 -1 0 0 0 Z " fill="#F3F7FA" transform="translate(633,1158)"/>
<path d="M0 0 C0 0.66 0 1.32 0 2 C-2.95 3.37 -5.91 4.72 -8.88 6.06 C-9.72 6.45 -10.56 6.84 -11.43 7.24 C-12.63 7.79 -12.63 7.79 -13.87 8.35 C-14.61 8.69 -15.35 9.03 -16.12 9.38 C-18 10 -18 10 -20 9 C-17.08 5.64 -15.32 4.76 -11 4 C-9.65 3.03 -8.31 2.03 -7 1 C-2.39 -1.2 -2.39 -1.2 0 0 Z " fill="#F1F5F9" transform="translate(411,132)"/>
<path d="M0 0 C6.28 0.47 6.28 0.47 8.94 2.44 C10 4 10 4 10 6 C10.66 6 11.32 6 12 6 C12 6.66 12 7.32 12 8 C10.68 8 9.36 8 8 8 C8 7.34 8 6.68 8 6 C7.26 5.73 6.51 5.46 5.75 5.19 C3.13 4.06 1.2 2.79 -1 1 C-0.67 0.67 -0.34 0.34 0 0 Z " fill="#173DA1" transform="translate(578,116)"/>
<path d="M0 0 C-0.11 2.75 -0.24 5.5 -0.38 8.25 C-0.41 9.03 -0.44 9.8 -0.47 10.61 C-0.83 17.72 -0.83 17.72 -3 21 C-3.33 21 -3.66 21 -4 21 C-4 18.69 -4 16.38 -4 14 C-3.34 14 -2.68 14 -2 14 C-2.33 9.71 -2.66 5.42 -3 1 C-1 0 -1 0 0 0 Z " fill="#F3F6FA" transform="translate(578,1173)"/>
<path d="M0 0 C-0.25 6.36 -0.63 11.04 -5 16 C-8.06 18.44 -8.06 18.44 -11 20 C-11.99 19.67 -12.98 19.34 -14 19 C-13.37 18.61 -12.75 18.23 -12.1 17.83 C-11.28 17.31 -10.47 16.79 -9.62 16.25 C-8.81 15.74 -8 15.23 -7.16 14.7 C-4.85 12.88 -3.96 11.76 -3 9 C-2.76 6.87 -2.76 6.87 -2.88 4.75 C-2.92 3.51 -2.96 2.28 -3 1 C-1 0 -1 0 0 0 Z " fill="#F7FAFB" transform="translate(708,100)"/>
<path d="M0 0 C2.41 2.19 3.8 4.26 5.19 7.19 C5.53 7.9 5.88 8.62 6.23 9.36 C6.48 9.9 6.74 10.44 7 11 C6.01 11.33 5.02 11.66 4 12 C3.33 10.57 2.66 9.13 2 7.69 C1.63 6.89 1.26 6.09 0.88 5.26 C0 3 0 3 0 0 Z " fill="#3855A2" transform="translate(1042,412)"/>
</svg>
